<svg width="1366" height="812" viewBox="0 0 1366 812" fill="none" xmlns="http://www.w3.org/2000/svg">
<rect width="1366" height="812" fill="#1F3E92"/>
<circle cx="383.995" cy="777.567" r="21.7684" fill="url(#paint0_linear_891_37758)"/>
<circle cx="1198.77" cy="33.7684" r="21.7684" fill="url(#paint1_linear_891_37758)"/>
<circle cx="1347.77" cy="501.768" r="21.7684" fill="url(#paint2_linear_891_37758)"/>
<circle cx="250.772" cy="757.542" r="3.48295" fill="#8A9CCD"/>
<circle cx="87.9445" cy="763.636" r="2.61221" fill="#8A9CCD"/>
<circle cx="99.264" cy="697.861" r="5.22442" fill="#8A9CCD"/>
<circle cx="80.9784" cy="447.96" r="2.61221" fill="#8A9CCD"/>
<circle cx="67.0468" cy="275.556" r="2.61221" fill="#8A9CCD"/>
<circle cx="1309.51" cy="770.694" r="2.61221" fill="#8A9CCD"/>
<circle cx="927.612" cy="798.612" r="2.61221" fill="#8A9CCD"/>
<circle cx="1320.83" cy="704.92" r="5.22442" fill="#8A9CCD"/>
<circle cx="716.224" cy="756.224" r="5.22442" fill="#8A9CCD"/>
<circle cx="1302.54" cy="455.018" r="2.61221" fill="#8A9CCD"/>
<circle cx="1288.61" cy="282.612" r="2.61221" fill="#8A9CCD"/>
<circle cx="296.05" cy="53.9849" r="3.48295" fill="#8A9CCD"/>
<circle cx="429.273" cy="42.6669" r="2.61221" fill="#8A9CCD"/>
<circle cx="549.435" cy="42.6655" r="6.09516" fill="#8A9CCD"/>
<circle cx="650.44" cy="54.8563" r="2.61221" fill="#8A9CCD"/>
<circle cx="745.351" cy="53.986" r="10.4488" fill="#8A9CCD"/>
<defs>
<linearGradient id="paint0_linear_891_37758" x1="362" y1="756" x2="415.5" y2="799" gradientUnits="userSpaceOnUse">
<stop stop-color="#8A9CCD"/>
<stop offset="1" stop-color="#8A9CCD" stop-opacity="0"/>
</linearGradient>
<linearGradient id="paint1_linear_891_37758" x1="1177" y1="12" x2="1214" y2="51" gradientUnits="userSpaceOnUse">
<stop stop-color="#8A9CCD"/>
<stop offset="1" stop-color="#8A9CCD" stop-opacity="0"/>
</linearGradient>
<linearGradient id="paint2_linear_891_37758" x1="1326" y1="480" x2="1363" y2="519" gradientUnits="userSpaceOnUse">
<stop stop-color="#8A9CCD"/>
<stop offset="1" stop-color="#8A9CCD" stop-opacity="0"/>
</linearGradient>
</defs>
</svg>
