<svg width="29" height="27" viewBox="0 0 29 27" fill="none" xmlns="http://www.w3.org/2000/svg">
<g clip-path="url(#clip0_992_49145)">
<path d="M5.49899e-07 13.5002C-0.000621038 12.0138 0.525739 10.5688 1.4974 9.38938C2.46905 8.20999 3.83167 7.36217 5.37377 6.97751C6.91588 6.59285 8.55124 6.69285 10.0261 7.26199C11.5009 7.83114 12.7327 8.8376 13.5303 10.1252H25.375C25.4941 10.125 25.6121 10.1466 25.7221 10.1889C25.8322 10.2312 25.9323 10.2933 26.0166 10.3716L28.7354 12.9028C28.8198 12.9812 28.8867 13.0743 28.9324 13.1768C28.9781 13.2793 29.0016 13.3892 29.0016 13.5002C29.0016 13.6112 28.9781 13.7211 28.9324 13.8236C28.8867 13.9261 28.8198 14.0192 28.7354 14.0976L26.0166 16.6288C25.9324 16.7074 25.8324 16.7697 25.7223 16.8123C25.6122 16.8548 25.4942 16.8767 25.375 16.8767C25.2558 16.8767 25.1378 16.8548 25.0277 16.8123C24.9176 16.7697 24.8176 16.7074 24.7334 16.6288L23.5625 15.537L22.3916 16.6288C22.3074 16.7074 22.2074 16.7697 22.0973 16.8123C21.9872 16.8548 21.8692 16.8767 21.75 16.8767C21.6308 16.8767 21.5128 16.8548 21.4027 16.8123C21.2926 16.7697 21.1926 16.7074 21.1084 16.6288L19.9375 15.537L18.7666 16.6288C18.6824 16.7074 18.5824 16.7697 18.4723 16.8123C18.3622 16.8548 18.2442 16.8767 18.125 16.8767C18.0058 16.8767 17.8878 16.8548 17.7777 16.8123C17.6676 16.7697 17.5676 16.7074 17.4834 16.6288L16.3125 15.537L15.1416 16.6288C15.0573 16.7071 14.9572 16.7692 14.8471 16.8115C14.7371 16.8537 14.6191 16.8754 14.5 16.8752H13.5303C12.7327 18.1628 11.5009 19.1692 10.0261 19.7384C8.55124 20.3075 6.91588 20.4075 5.37377 20.0229C3.83167 19.6382 2.46905 18.7904 1.4974 17.611C0.525739 16.4316 -0.000621038 14.9866 5.49899e-07 13.5002ZM7.25 8.43769C6.27694 8.43803 5.32181 8.68148 4.48425 9.14263C3.64669 9.60378 2.95738 10.2657 2.48825 11.0594C2.01912 11.8531 1.78734 12.7495 1.81711 13.655C1.84687 14.5606 2.13709 15.4421 2.65747 16.2076C3.17786 16.9731 3.90935 17.5946 4.77563 18.0072C5.64191 18.4198 6.61124 18.6084 7.5825 18.5533C8.55376 18.4983 9.49136 18.2016 10.2975 17.6942C11.1036 17.1868 11.7487 16.4873 12.1655 15.6686C12.2391 15.5248 12.3549 15.4033 12.4996 15.3182C12.6442 15.2331 12.8118 15.1878 12.9829 15.1877H14.1248L15.6709 13.7466C15.7551 13.668 15.8551 13.6056 15.9652 13.5631C16.0753 13.5206 16.1933 13.4987 16.3125 13.4987C16.4317 13.4987 16.5497 13.5206 16.6598 13.5631C16.7699 13.6056 16.8699 13.668 16.9541 13.7466L18.125 14.8384L19.2959 13.7466C19.3801 13.668 19.4801 13.6056 19.5902 13.5631C19.7003 13.5206 19.8183 13.4987 19.9375 13.4987C20.0567 13.4987 20.1747 13.5206 20.2848 13.5631C20.3949 13.6056 20.4949 13.668 20.5791 13.7466L21.75 14.8384L22.9209 13.7466C23.0051 13.668 23.1051 13.6056 23.2152 13.5631C23.3253 13.5206 23.4433 13.4987 23.5625 13.4987C23.6817 13.4987 23.7997 13.5206 23.9098 13.5631C24.0199 13.6056 24.1199 13.668 24.2041 13.7466L25.375 14.8384L26.8123 13.5002L24.9998 11.8127H12.9829C12.8118 11.8126 12.6442 11.7673 12.4996 11.6822C12.3549 11.5971 12.2391 11.4756 12.1655 11.3318C11.7245 10.4656 11.0284 9.73376 10.1583 9.22144C9.28809 8.70911 8.27957 8.43733 7.25 8.43769Z" fill="white"/>
<path d="M7.25 13.5C7.25 13.9476 7.05904 14.3768 6.71913 14.6932C6.37922 15.0097 5.91821 15.1875 5.4375 15.1875C4.9568 15.1875 4.49578 15.0097 4.15587 14.6932C3.81596 14.3768 3.625 13.9476 3.625 13.5C3.625 13.0524 3.81596 12.6232 4.15587 12.3068C4.49578 11.9903 4.9568 11.8125 5.4375 11.8125C5.91821 11.8125 6.37922 11.9903 6.71913 12.3068C7.05904 12.6232 7.25 13.0524 7.25 13.5Z" fill="white"/>
</g>
<defs>
<clipPath id="clip0_992_49145">
<rect width="29" height="27" fill="white"/>
</clipPath>
</defs>
</svg>
