<svg width="40" height="40" viewBox="0 0 40 40" fill="none" xmlns="http://www.w3.org/2000/svg">
<path d="M5.58113 3.33337H20.4145C21.6478 3.33337 22.6645 4.35005 22.6645 5.58338V8.05002C22.6645 8.95002 22.0978 10.0667 21.5478 10.6334L16.7146 14.9C16.0479 15.4667 15.5978 16.5834 15.5978 17.4834V22.3167C15.5978 22.9834 15.1478 23.8834 14.5812 24.2334L13.0145 25.25C11.5478 26.15 9.53113 25.1334 9.53113 23.3334V17.3834C9.53113 16.6 9.08116 15.5834 8.63116 15.0167L4.3645 10.5167C3.79783 9.95004 3.34786 8.95003 3.34786 8.26669V5.68338C3.33119 4.35005 4.3478 3.33337 5.58113 3.33337Z" stroke="white" stroke-width="2.5" stroke-miterlimit="10" stroke-linecap="round" stroke-linejoin="round"/>
<path d="M3.33203 20.0002V25.0002C3.33203 33.3335 6.66536 36.6669 14.9987 36.6669H24.9987C33.332 36.6669 36.6654 33.3335 36.6654 25.0002V15.0002C36.6654 9.8002 35.3653 6.53353 32.3487 4.83353C31.4987 4.35019 29.7987 3.98352 28.2487 3.73352" stroke="white" stroke-width="2.5" stroke-linecap="round" stroke-linejoin="round"/>
<path d="M21.668 21.6666H30.0013" stroke="white" stroke-width="2.5" stroke-linecap="round" stroke-linejoin="round"/>
<path d="M18.332 28.3334H29.9987" stroke="white" stroke-width="2.5" stroke-linecap="round" stroke-linejoin="round"/>
</svg>
