<svg width="24" height="24" viewBox="0 0 24 24" fill="none" xmlns="http://www.w3.org/2000/svg">
<path d="M4.80078 6.59961C4.80078 5.80396 5.11685 5.0409 5.67946 4.47829C6.24207 3.91568 7.00513 3.59961 7.80078 3.59961H18.6008C19.3964 3.59961 20.1595 3.91568 20.7221 4.47829C21.2847 5.0409 21.6008 5.80396 21.6008 6.59961V14.9996C21.6008 15.7953 21.2847 16.5583 20.7221 17.1209C20.1595 17.6835 19.3964 17.9996 18.6008 17.9996H7.80078C7.00513 17.9996 6.24207 17.6835 5.67946 17.1209C5.11685 16.5583 4.80078 15.7953 4.80078 14.9996V6.59961ZM12.896 11.9168L6.00078 8.35281V14.9996C6.00078 15.477 6.19042 15.9348 6.52799 16.2724C6.86555 16.61 7.32339 16.7996 7.80078 16.7996H18.6008C19.0782 16.7996 19.536 16.61 19.8736 16.2724C20.2111 15.9348 20.4008 15.477 20.4008 14.9996V8.35521L13.5056 11.9168L13.4072 11.9624C13.3239 11.9931 13.2349 12.0049 13.1465 11.997C13.0581 11.9891 12.9725 11.9617 12.896 11.9168ZM18.6008 4.79961H7.80078C7.32339 4.79961 6.86555 4.98925 6.52799 5.32682C6.19042 5.66438 6.00078 6.12222 6.00078 6.59961V6.96081L13.2008 10.7036L20.4008 6.96201V6.59961C20.4008 6.12222 20.2111 5.66438 19.8736 5.32682C19.536 4.98925 19.0782 4.79961 18.6008 4.79961Z" fill="white"/>
<path d="M16.2004 20.3996C17.182 20.3996 18.0532 19.928 18.6004 19.1996H7.80039C6.68648 19.1996 5.61819 18.7571 4.83054 17.9695C4.04289 17.1818 3.60039 16.1135 3.60039 14.9996V6.59961C2.87199 7.14681 2.40039 8.01801 2.40039 8.99961V14.9996C2.40039 16.4318 2.96932 17.8053 3.98201 18.818C4.99471 19.8307 6.36822 20.3996 7.80039 20.3996H16.2004Z" fill="white"/>
</svg>
