<svg width="20" height="21" viewBox="0 0 20 21" fill="none" xmlns="http://www.w3.org/2000/svg">
<path d="M18.3083 15.7748C18.3083 16.0748 18.2417 16.3832 18.1 16.6832C17.9583 16.9832 17.775 17.2665 17.5333 17.5332C17.125 17.9832 16.675 18.3082 16.1667 18.5165C15.6667 18.7248 15.125 18.8332 14.5417 18.8332C13.6917 18.8332 12.7833 18.6332 11.825 18.2248C10.8667 17.8165 9.90832 17.2665 8.95832 16.5748C7.99999 15.8748 7.09166 15.0998 6.22499 14.2415C5.36666 13.3748 4.59166 12.4665 3.89999 11.5165C3.21666 10.5665 2.66666 9.6165 2.26666 8.67484C1.86666 7.72484 1.66666 6.8165 1.66666 5.94984C1.66666 5.38317 1.76666 4.8415 1.96666 4.3415C2.16666 3.83317 2.48332 3.3665 2.92499 2.94984C3.45832 2.42484 4.04166 2.1665 4.65832 2.1665C4.89166 2.1665 5.12499 2.2165 5.33332 2.3165C5.54999 2.4165 5.74166 2.5665 5.89166 2.78317L7.82499 5.50817C7.97499 5.7165 8.08332 5.90817 8.15832 6.0915C8.23332 6.2665 8.27499 6.4415 8.27499 6.59984C8.27499 6.79984 8.21666 6.99984 8.09999 7.1915C7.99166 7.38317 7.83332 7.58317 7.63332 7.78317L6.99999 8.4415C6.90832 8.53317 6.86666 8.6415 6.86666 8.77484C6.86666 8.8415 6.87499 8.89984 6.89166 8.9665C6.91666 9.03317 6.94166 9.08317 6.95832 9.13317C7.10832 9.40817 7.36666 9.7665 7.73332 10.1998C8.10832 10.6332 8.50832 11.0748 8.94166 11.5165C9.39166 11.9582 9.82499 12.3665 10.2667 12.7415C10.7 13.1082 11.0583 13.3582 11.3417 13.5082C11.3833 13.5248 11.4333 13.5498 11.4917 13.5748C11.5583 13.5998 11.625 13.6082 11.7 13.6082C11.8417 13.6082 11.95 13.5582 12.0417 13.4665L12.675 12.8415C12.8833 12.6332 13.0833 12.4748 13.275 12.3748C13.4667 12.2582 13.6583 12.1998 13.8667 12.1998C14.025 12.1998 14.1917 12.2332 14.375 12.3082C14.5583 12.3832 14.75 12.4915 14.9583 12.6332L17.7167 14.5915C17.9333 14.7415 18.0833 14.9165 18.175 15.1248C18.2583 15.3332 18.3083 15.5415 18.3083 15.7748Z" stroke="white" stroke-width="1.5" stroke-miterlimit="10"/>
</svg>
