<svg width="24" height="20" viewBox="0 0 24 20" fill="none" xmlns="http://www.w3.org/2000/svg">
<path d="M3.71045 3.81797C3.71045 2.8902 4.079 2.00044 4.73503 1.34441C5.39106 0.688378 6.28083 0.319824 7.20859 0.319824H19.8019C20.7297 0.319824 21.6194 0.688378 22.2755 1.34441C22.9315 2.00044 23.3001 2.8902 23.3001 3.81797V13.6128C23.3001 14.5405 22.9315 15.4303 22.2755 16.0863C21.6194 16.7424 20.7297 17.1109 19.8019 17.1109H7.20859C6.28083 17.1109 5.39106 16.7424 4.73503 16.0863C4.079 15.4303 3.71045 14.5405 3.71045 13.6128V3.81797ZM13.1498 10.0181L5.10971 5.86229V13.6128C5.10971 14.1694 5.33084 14.7033 5.72446 15.0969C6.11807 15.4905 6.65193 15.7117 7.20859 15.7117H19.8019C20.3586 15.7117 20.8924 15.4905 21.286 15.0969C21.6797 14.7033 21.9008 14.1694 21.9008 13.6128V5.86508L13.8607 10.0181L13.7459 10.0713C13.6488 10.107 13.545 10.1208 13.4419 10.1116C13.3388 10.1024 13.2391 10.0705 13.1498 10.0181ZM19.8019 1.71908H7.20859C6.65193 1.71908 6.11807 1.94021 5.72446 2.33383C5.33084 2.72745 5.10971 3.26131 5.10971 3.81797V4.23915L13.5053 8.60343L21.9008 4.24055V3.81797C21.9008 3.26131 21.6797 2.72745 21.286 2.33383C20.8924 1.94021 20.3586 1.71908 19.8019 1.71908Z" fill="white"/>
<path d="M17.0036 19.9093C18.1482 19.9093 19.164 19.3594 19.8021 18.5101H7.20877C5.9099 18.5101 4.66422 17.9941 3.74578 17.0757C2.82734 16.1572 2.31137 14.9115 2.31137 13.6127V3.81787C1.46202 4.45593 0.912109 5.47179 0.912109 6.61639V13.6127C0.912109 15.2827 1.57551 16.8842 2.75636 18.0651C3.93721 19.2459 5.53879 19.9093 7.20877 19.9093H17.0036Z" fill="white"/>
</svg>
