<svg width="29" height="15" viewBox="0 0 29 15" fill="none" xmlns="http://www.w3.org/2000/svg">
<path d="M0.11377 7.5747C0.11317 6.03407 0.621111 4.53633 1.55876 3.3139C2.49642 2.09147 3.81135 1.21272 5.29949 0.814024C6.78763 0.415326 8.36576 0.518976 9.78897 1.10889C11.2122 1.6988 12.4009 2.74199 13.1706 4.07655H24.6008C24.7157 4.07635 24.8295 4.0988 24.9358 4.14261C25.042 4.18643 25.1386 4.25076 25.22 4.33192L27.8436 6.95553C27.925 7.03676 27.9896 7.13327 28.0337 7.23952C28.0778 7.34576 28.1005 7.45967 28.1005 7.5747C28.1005 7.68973 28.0778 7.80363 28.0337 7.90988C27.9896 8.01613 27.925 8.11263 27.8436 8.19387L25.22 10.8175C25.1387 10.8989 25.0422 10.9635 24.936 11.0076C24.8297 11.0517 24.7158 11.0744 24.6008 11.0744C24.4857 11.0744 24.3718 11.0517 24.2656 11.0076C24.1594 10.9635 24.0628 10.8989 23.9816 10.8175L22.8517 9.68583L21.7218 10.8175C21.6406 10.8989 21.5441 10.9635 21.4378 11.0076C21.3316 11.0517 21.2177 11.0744 21.1026 11.0744C20.9876 11.0744 20.8737 11.0517 20.7675 11.0076C20.6612 10.9635 20.5647 10.8989 20.4835 10.8175L19.3536 9.68583L18.2237 10.8175C18.1424 10.8989 18.0459 10.9635 17.9397 11.0076C17.8334 11.0517 17.7195 11.0744 17.6045 11.0744C17.4895 11.0744 17.3756 11.0517 17.2693 11.0076C17.1631 10.9635 17.0666 10.8989 16.9853 10.8175L15.8554 9.68583L14.7255 10.8175C14.6442 10.8986 14.5476 10.963 14.4413 11.0068C14.3351 11.0506 14.2213 11.073 14.1063 11.0728H13.1706C12.4009 12.4074 11.2122 13.4506 9.78897 14.0405C8.36576 14.6304 6.78763 14.7341 5.29949 14.3354C3.81135 13.9367 2.49642 13.0579 1.55876 11.8355C0.621111 10.6131 0.11317 9.11532 0.11377 7.5747ZM7.11006 2.32748C6.17105 2.32784 5.24935 2.58017 4.44109 3.05814C3.63284 3.53612 2.96766 4.22223 2.51494 5.04489C2.06223 5.86756 1.83856 6.79664 1.86729 7.7352C1.89601 8.67377 2.17607 9.58743 2.67824 10.3809C3.18042 11.1743 3.88631 11.8185 4.72228 12.2461C5.55824 12.6738 6.49366 12.8693 7.43093 12.8122C8.3682 12.7552 9.27298 12.4476 10.0509 11.9217C10.8288 11.3958 11.4513 10.6708 11.8535 9.82226C11.9246 9.67317 12.0363 9.54723 12.1759 9.45901C12.3155 9.3708 12.4772 9.32391 12.6424 9.32377H13.7443L15.2362 7.83006C15.3175 7.74862 15.414 7.68401 15.5202 7.63992C15.6265 7.59583 15.7404 7.57314 15.8554 7.57314C15.9705 7.57314 16.0844 7.59583 16.1906 7.63992C16.2968 7.68401 16.3934 7.74862 16.4746 7.83006L17.6045 8.96171L18.7344 7.83006C18.8156 7.74862 18.9121 7.68401 19.0184 7.63992C19.1246 7.59583 19.2385 7.57314 19.3536 7.57314C19.4686 7.57314 19.5825 7.59583 19.6887 7.63992C19.795 7.68401 19.8915 7.74862 19.9727 7.83006L21.1026 8.96171L22.2325 7.83006C22.3138 7.74862 22.4103 7.68401 22.5165 7.63992C22.6228 7.59583 22.7367 7.57314 22.8517 7.57314C22.9667 7.57314 23.0806 7.59583 23.1869 7.63992C23.2931 7.68401 23.3896 7.74862 23.4709 7.83006L24.6008 8.96171L25.9878 7.5747L24.2387 5.82563H12.6424C12.4772 5.82549 12.3155 5.7786 12.1759 5.69038C12.0363 5.60217 11.9246 5.47623 11.8535 5.32714C11.428 4.42936 10.7563 3.67085 9.91655 3.13983C9.07682 2.60881 8.1036 2.32711 7.11006 2.32748Z" fill="white"/>
<path d="M7.10996 7.57476C7.10996 8.03864 6.92568 8.48352 6.59767 8.81154C6.26965 9.13955 5.82477 9.32383 5.36089 9.32383C4.89701 9.32383 4.45212 9.13955 4.12411 8.81154C3.79609 8.48352 3.61182 8.03864 3.61182 7.57476C3.61182 7.11087 3.79609 6.66599 4.12411 6.33798C4.45212 6.00996 4.89701 5.82568 5.36089 5.82568C5.82477 5.82568 6.26965 6.00996 6.59767 6.33798C6.92568 6.66599 7.10996 7.11087 7.10996 7.57476Z" fill="white"/>
</svg>
