<svg width="20" height="21" viewBox="0 0 20 21" fill="none" xmlns="http://www.w3.org/2000/svg">
<path d="M10.8333 18.8332H4.16666C2.49999 18.8332 1.66666 17.9998 1.66666 16.3332V9.6665C1.66666 7.99984 2.49999 7.1665 4.16666 7.1665H8.33332V16.3332C8.33332 17.9998 9.16666 18.8332 10.8333 18.8332Z" stroke="white" stroke-width="1.5" stroke-miterlimit="10" stroke-linecap="round" stroke-linejoin="round"/>
<path d="M8.42498 3.8335C8.35831 4.0835 8.33332 4.3585 8.33332 4.66683V7.16683H4.16666V5.50016C4.16666 4.5835 4.91666 3.8335 5.83332 3.8335H8.42498Z" stroke="white" stroke-width="1.5" stroke-miterlimit="10" stroke-linecap="round" stroke-linejoin="round"/>
<path d="M11.6667 7.1665V11.3332" stroke="white" stroke-width="1.5" stroke-miterlimit="10" stroke-linecap="round" stroke-linejoin="round"/>
<path d="M15 7.1665V11.3332" stroke="white" stroke-width="1.5" stroke-miterlimit="10" stroke-linecap="round" stroke-linejoin="round"/>
<path d="M14.1667 14.6665H12.5C12.0417 14.6665 11.6667 15.0415 11.6667 15.4998V18.8332H15V15.4998C15 15.0415 14.625 14.6665 14.1667 14.6665Z" stroke="white" stroke-width="1.5" stroke-miterlimit="10" stroke-linecap="round" stroke-linejoin="round"/>
<path d="M5 11.3335V14.6668" stroke="white" stroke-width="1.5" stroke-miterlimit="10" stroke-linecap="round" stroke-linejoin="round"/>
<path d="M8.33334 16.3332V4.6665C8.33334 2.99984 9.16668 2.1665 10.8333 2.1665H15.8333C17.5 2.1665 18.3333 2.99984 18.3333 4.6665V16.3332C18.3333 17.9998 17.5 18.8332 15.8333 18.8332H10.8333C9.16668 18.8332 8.33334 17.9998 8.33334 16.3332Z" stroke="white" stroke-width="1.5" stroke-miterlimit="10" stroke-linecap="round" stroke-linejoin="round"/>
</svg>
