<svg width="40" height="40" viewBox="0 0 40 40" fill="none" xmlns="http://www.w3.org/2000/svg">
<path d="M13.3337 36.6667H26.667C33.367 36.6667 34.567 33.9833 34.917 30.7167L36.167 17.3833C36.617 13.3167 35.4504 10 28.3337 10H11.667C4.55036 10 3.3837 13.3167 3.8337 17.3833L5.0837 30.7167C5.4337 33.9833 6.6337 36.6667 13.3337 36.6667Z" stroke="white" stroke-width="1.5" stroke-miterlimit="10" stroke-linecap="round" stroke-linejoin="round"/>
<path d="M13.333 9.99992V8.66659C13.333 5.71659 13.333 3.33325 18.6663 3.33325H21.333C26.6663 3.33325 26.6663 5.71659 26.6663 8.66659V9.99992" stroke="white" stroke-width="1.5" stroke-miterlimit="10" stroke-linecap="round" stroke-linejoin="round"/>
<path d="M23.3337 21.6667V23.3333C23.3337 23.35 23.3337 23.35 23.3337 23.3667C23.3337 25.1833 23.317 26.6667 20.0003 26.6667C16.7003 26.6667 16.667 25.2 16.667 23.3833V21.6667C16.667 20 16.667 20 18.3337 20H21.667C23.3337 20 23.3337 20 23.3337 21.6667Z" stroke="white" stroke-width="1.5" stroke-miterlimit="10" stroke-linecap="round" stroke-linejoin="round"/>
<path d="M36.083 18.3333C32.233 21.1333 27.833 22.7999 23.333 23.3666" stroke="white" stroke-width="1.5" stroke-miterlimit="10" stroke-linecap="round" stroke-linejoin="round"/>
<path d="M4.36621 18.7834C8.11621 21.3501 12.3495 22.9001 16.6662 23.3834" stroke="white" stroke-width="1.5" stroke-miterlimit="10" stroke-linecap="round" stroke-linejoin="round"/>
</svg>
