<svg width="1212" height="1" viewBox="0 0 1212 1" fill="none" xmlns="http://www.w3.org/2000/svg">
<path d="M1.5 1V0.5H1.50001V0H4.50003V0.5H4.5V1H1.5ZM10.5 1H7.5V0.5H7.49997V0H10.5V0.5H10.5V1ZM13.5 0.5L13.5 0H16.5V0.5H16.5V1H13.5V0.5ZM19.5 0.5V0H22.5V0.5H22.5V1H19.5V0.5H19.5ZM25.5 0.5L25.5 0H28.5V0.5H28.5V1H25.5V0.5ZM31.5 0.5V0H34.5L34.5 0.5V1H31.5V0.5H31.5ZM37.5 0.5L37.5 0H40.5L40.5 0.5V1H37.5V0.5ZM43.5 0.5V0H46.5L46.5 0.5V1H43.5V0.5H43.5ZM49.5 0.5L49.5 0H52.5L52.5 0.5V1H49.5V0.5ZM55.5 0.5V0H58.5L58.5 0.5V1H55.5V0.5H55.5ZM61.5 0.5L61.5 0H64.5L64.5 0.5V1H61.5V0.5ZM67.5 0.5L67.5 0H70.5L70.5 0.5V1H67.5V0.5ZM73.5 0.5L73.5 0H76.5V0.5V1H73.5V0.5ZM79.5 0.5L79.5 0H82.5L82.5 0.5V1H79.5V0.5ZM85.5 0.5L85.5 0H88.5V0.5V1H85.5V0.5ZM91.5 0.5L91.5 0H94.5L94.5 0.5V1H91.5V0.5ZM97.5 0.5L97.5 0H100.5V0.5V1H97.5V0.5ZM103.5 0.5L103.5 0H106.5L106.5 0.5V1H103.5V0.5ZM109.5 0.5L109.5 0H112.5L112.5 0.5V1H109.5V0.5ZM115.5 0.5L115.5 0H118.5L118.5 0.5V1H115.5V0.5ZM121.5 0.5L121.5 0H124.5L124.5 0.5V1H121.5V0.5ZM127.5 0.5L127.5 0H130.5L130.5 0.5V1H127.5V0.5ZM133.5 0.5L133.5 0H136.5L136.5 0.5V1H133.5V0.5ZM139.5 0.5V0H142.5L142.5 0.5V1H139.5V0.5ZM145.5 0.5L145.5 0H148.5L148.5 0.5V1H145.5V0.5ZM151.5 0.5V0H154.5L154.5 0.5V1H151.5V0.5ZM157.5 0.5L157.5 0H160.5L160.5 0.5V1H157.5V0.5ZM163.5 0.5V0H166.5L166.5 0.5V1H163.5V0.5ZM169.5 0.5L169.5 0H172.5L172.5 0.5V1H169.5V0.5ZM175.5 0.5V0H178.5L178.5 0.5V1H175.5V0.5ZM181.5 0.5L181.5 0H184.5L184.5 0.5V1H181.5V0.5ZM187.5 0.5L187.5 0H190.5V0.5V1H187.5V0.5ZM193.5 0.5L193.5 0H196.5L196.5 0.5V1H193.5V0.5ZM199.5 0.5L199.5 0H202.5V0.5V1H199.5V0.5ZM205.5 0.5L205.5 0H208.5L208.5 0.5V1H205.5V0.5ZM211.5 0.5L211.5 0H214.5V0.5V1H211.5V0.5ZM217.5 0.5L217.5 0H220.5L220.5 0.5V1H217.5V0.5ZM223.5 0.5L223.5 0H226.5V0.5V1H223.5V0.5ZM229.5 0.5L229.5 0H232.5L232.5 0.5V1H229.5V0.5ZM235.5 0.5L235.5 0H238.5V0.5V1H235.5V0.5ZM241.5 0.5L241.5 0H244.5L244.5 0.5V1H241.5V0.5ZM247.5 0.5L247.5 0H250.5L250.5 0.5V1H247.5V0.5ZM253.5 0.5V0H256.5L256.5 0.5V1H253.5V0.5ZM259.5 0.5L259.5 0H262.5V0.5V1H259.5V0.5ZM265.5 0.5V0H268.5L268.5 0.5V1H265.5V0.5ZM271.5 0.5L271.5 0H274.5L274.5 0.5V1H271.5V0.5ZM277.5 0.5V0H280.5L280.5 0.5V1H277.5V0.5ZM283.5 0.5L283.5 0H286.5L286.5 0.5V1H283.5V0.5ZM289.5 0.5V0H292.5V0.5V1H289.5V0.5ZM295.5 0.5L295.5 0H298.5L298.5 0.5V1H295.5V0.5ZM301.5 0.5V0H304.5V0.5V1H301.5V0.5ZM307.5 0.5L307.5 0H310.5L310.5 0.5V1H307.5V0.5ZM313.5 0.5V0H316.5V0.5V1H313.5V0.5ZM319.5 0.5L319.5 0H322.5L322.5 0.5V1H319.5V0.5ZM325.5 0.5V0H328.5V0.5V1H325.5V0.5ZM331.5 0.5L331.5 0H334.5L334.5 0.5V1H331.5V0.5ZM337.5 0.5L337.5 0H340.5V0.5V1H337.5V0.5ZM343.5 0.5V0H346.5L346.5 0.5V1H343.5V0.5ZM349.5 0.5L349.5 0H352.5V0.5V1H349.5V0.5ZM355.5 0.5V0H358.5L358.5 0.5V1H355.5V0.5ZM361.5 0.5L361.5 0H364.5V0.5V1H361.5V0.5ZM367.5 0.5V0H370.5L370.5 0.5V1H367.5V0.5ZM373.5 0.5L373.5 0H376.5V0.5V1H373.5V0.5ZM379.5 0.5V0H382.5L382.5 0.5V1H379.5V0.5ZM385.5 0.5L385.5 0H388.5V0.5V1H385.5V0.5ZM391.5 0.5V0H394.5V0.5V1H391.5V0.5ZM397.5 0.5L397.5 0H400.5L400.5 0.5V1H397.5V0.5ZM403.5 0.5V0H406.5V0.5V1H403.5V0.5ZM409.5 0.5L409.5 0H412.5L412.5 0.5V1H409.5V0.5ZM415.5 0.5V0H418.5V0.5V1H415.5V0.5ZM421.5 0.5L421.5 0H424.5L424.5 0.5V1H421.5V0.5ZM427.5 0.5V0H430.5V0.5V1H427.5V0.5ZM433.5 0.5L433.5 0H436.5L436.5 0.5V1H433.5V0.5ZM439.5 0.5V0H442.5V0.5V1H439.5V0.5ZM445.5 0.5L445.5 0H448.5L448.5 0.5V1H445.5V0.5ZM451.5 0.5V0H454.5V0.5V1H451.5V0.5ZM457.5 0.5V0H460.5L460.5 0.5V1H457.5V0.5ZM463.5 0.5L463.5 0H466.5V0.5V1H463.5V0.5ZM469.5 0.5V0H472.5L472.5 0.5V1H469.5V0.5ZM475.5 0.5L475.5 0H478.5V0.5V1H475.5V0.5ZM481.5 0.5V0H484.5L484.5 0.5V1H481.5V0.5ZM487.5 0.5L487.5 0H490.5V0.5V1H487.5V0.5ZM493.5 0.5V0H496.5L496.5 0.5V1H493.5V0.5ZM499.5 0.5L499.5 0H502.5V0.5V1H499.5V0.5ZM505.5 0.5V0H508.5L508.5 0.5V1H505.5V0.5ZM511.5 0.5L511.5 0H514.5V0.5V1H511.5V0.5ZM517.5 0.5V0H520.5V0.5V1H517.5V0.5ZM523.5 0.5L523.5 0H526.5V0.5V1H523.5V0.5ZM529.5 0.5V0H532.5V0.5V1H529.5V0.5ZM535.5 0.5V0H538.5V0.5V1H535.5V0.5ZM541.5 0.5V0H544.5V0.5V1H541.5V0.5ZM547.5 0.5V0H550.5V0.5V1H547.5V0.5ZM553.5 0.5V0H556.5V0.5V1H553.5V0.5ZM559.5 0.5V0H562.5L562.5 0.5V1H559.5V0.5ZM565.5 0.5V0H568.5V0.5V1H565.5V0.5ZM571.5 0.5V0H574.5L574.5 0.5V1H571.5V0.5ZM577.5 0.5V0H580.5V0.5V1H577.5V0.5ZM583.5 0.5V0H586.5L586.5 0.5V1H583.5V0.5ZM589.5 0.5V0H592.5V0.5V1H589.5V0.5ZM595.5 0.5V0H598.5V0.5V1H595.5V0.5ZM601.5 0.5V0H604.5V0.5V1H601.5V0.5ZM607.5 0.5V0H610.5V0.5V1H607.5V0.5ZM613.5 0.5V0H616.5V0.5V1H613.5V0.5ZM619.5 0.5V0H622.5V0.5V1H619.5V0.5ZM625.5 0.5L625.5 0H628.5V0.5V1H625.5V0.5ZM631.5 0.5V0H634.5V0.5V1H631.5V0.5ZM637.5 0.5L637.5 0H640.5V0.5V1H637.5V0.5ZM643.5 0.5V0H646.5V0.5V1H643.5V0.5ZM649.5 0.5L649.5 0H652.5V0.5V1H649.5V0.5ZM655.5 0.5V0H658.5V0.5V1H655.5V0.5ZM661.5 0.5V0H664.5V0.5V1H661.5V0.5ZM667.5 0.5V0H670.5V0.5V1H667.5V0.5ZM673.5 0.5V0H676.5V0.5V1H673.5V0.5ZM679.5 0.5V0H682.5V0.5V1H679.5V0.5ZM685.5 0.5V0H688.5L688.5 0.5V1H685.5V0.5ZM691.5 0.5V0H694.5V0.5V1H691.5V0.5ZM697.5 0.5V0H700.5L700.5 0.5V1H697.5V0.5ZM703.5 0.5V0H706.5V0.5V1H703.5V0.5ZM709.5 0.5V0H712.5L712.5 0.5V1H709.5V0.5ZM715.5 0.5V0H718.5V0.5V1H715.5V0.5ZM721.5 0.5V0H724.5V0.5V1H721.5V0.5ZM727.5 0.5V0H730.5V0.5V1H727.5V0.5ZM733.5 0.5V0H736.5V0.5V1H733.5V0.5ZM739.5 0.5L739.5 0H742.5V0.5V1H739.5V0.5ZM745.5 0.5V0H748.5V0.5V1H745.5V0.5ZM751.5 0.5L751.5 0H754.5V0.5V1H751.5V0.5ZM757.5 0.5V0H760.5V0.5V1H757.5V0.5ZM763.5 0.5L763.5 0H766.5V0.5V1H763.5V0.5ZM769.5 0.5V0H772.5V0.5V1H769.5V0.5ZM775.5 0.5L775.5 0H778.5V0.5V1H775.5V0.5ZM781.5 0.5V0H784.5V0.5V1H781.5V0.5ZM787.5 0.5V0H790.5V0.5V1H787.5V0.5ZM793.5 0.5V0H796.5V0.5V1H793.5V0.5ZM799.5 0.5V0H802.5L802.5 0.5V1H799.5V0.5ZM805.5 0.5V0H808.5V0.5V1H805.5V0.5ZM811.5 0.5V0H814.5L814.5 0.5V1H811.5V0.5ZM817.5 0.5V0H820.5V0.5V1H817.5V0.5ZM823.5 0.5V0H826.5L826.5 0.5V1H823.5V0.5ZM829.5 0.5V0H832.5V0.5V1H829.5V0.5ZM835.5 0.5V0H838.5V0.5V1H835.5V0.5ZM841.5 0.5V0H844.5V0.5V1H841.5V0.5ZM847.5 0.5V0H850.5V0.5V1H847.5V0.5ZM853.5 0.5V0H856.5V0.5V1H853.5V0.5ZM859.5 0.5V0H862.5V0.5V1H859.5V0.5ZM865.5 0.5L865.5 0H868.5V0.5V1H865.5V0.5ZM871.5 0.5V0H874.5V0.5V1H871.5V0.5ZM877.5 0.5L877.5 0H880.5V0.5V1H877.5V0.5ZM883.5 0.5V0H886.5V0.5V1H883.5V0.5ZM889.5 0.5L889.5 0H892.5V0.5V1H889.5V0.5ZM895.5 0.5V0H898.5V0.5V1H895.5V0.5ZM901.5 0.5V0H904.5V0.5V1H901.5V0.5ZM907.5 0.5V0H910.5V0.5V1H907.5V0.5ZM913.5 0.5V0H916.5V0.5V1H913.5V0.5ZM919.5 0.5V0H922.5V0.5V1H919.5V0.5ZM925.5 0.5V0H928.5L928.5 0.5V1H925.5V0.5ZM931.5 0.5V0H934.5V0.5V1H931.5V0.5ZM937.5 0.5V0H940.5L940.5 0.5V1H937.5V0.5ZM943.5 0.5V0H946.5V0.5V1H943.5V0.5ZM949.5 0.5V0H952.5L952.5 0.5V1H949.5V0.5ZM955.5 0.5V0H958.5V0.5V1H955.5V0.5ZM961.5 0.5V0H964.5V0.5V1H961.5V0.5ZM967.5 0.5V0H970.5V0.5V1H967.5V0.5ZM973.5 0.5V0H976.5V0.5V1H973.5V0.5ZM979.5 0.5V0H982.5V0.5V1H979.5V0.5ZM985.5 0.5V0H988.5V0.5V1H985.5V0.5ZM991.5 0.5L991.5 0H994.5V0.5V1H991.5V0.5ZM997.5 0.5V0H1000.5V0.5V1H997.5V0.5ZM1003.5 0.5L1003.5 0H1006.5V0.5V1H1003.5V0.5ZM1009.5 0.5V0H1012.5V0.5V1H1009.5V0.5ZM1015.5 0.5L1015.5 0H1018.5V0.5V1H1015.5V0.5ZM1021.5 0.5V0H1024.5V0.5V1H1021.5V0.5ZM1027.5 0.5V0H1030.5V0.5V1H1027.5V0.5ZM1033.5 0.5V0H1036.5V0.5V1H1033.5V0.5ZM1039.5 0.5V0H1042.5V0.5V1H1039.5V0.5ZM1045.5 0.5V0H1048.5V0.5V1H1045.5V0.5ZM1051.5 0.5V0H1054.5V0.5V1H1051.5V0.5ZM1057.5 0.5V0H1060.5V0.5V1H1057.5V0.5ZM1063.5 0.5V0H1066.5V0.5V1H1063.5V0.5ZM1069.5 0.5V0H1072.5V0.5V1H1069.5V0.5ZM1075.5 0.5V0H1078.5V0.5V1H1075.5V0.5ZM1081.5 0.5V0H1084.5V0.5V1H1081.5V0.5ZM1087.5 0.5V0H1090.5V0.5V1H1087.5V0.5ZM1093.5 0.5V0H1096.5V0.5V1H1093.5V0.5ZM1099.5 0.5V0H1102.5V0.5V1H1099.5V0.5ZM1105.5 0.5V0H1108.5V0.5V1H1105.5V0.5ZM1111.5 0.5V0H1114.5V0.5V1H1111.5V0.5ZM1117.5 0.5V0H1120.5V0.5V1H1117.5V0.5ZM1123.5 0.5V0H1126.5V0.5V1H1123.5V0.5ZM1129.5 0.5V0H1132.5V0.5V1H1129.5V0.5ZM1135.5 0.5V0H1138.5V0.5V1H1135.5V0.5ZM1141.5 0.5V0H1144.5V0.5V1H1141.5V0.5ZM1147.5 0.5V0H1150.5V0.5V1H1147.5V0.5ZM1153.5 0.5V0H1156.5V0.5V1H1153.5V0.5ZM1159.5 0.5V0H1162.5V0.5V1H1159.5V0.5ZM1165.5 0.5V0H1168.5V0.5V1H1165.5V0.5ZM1171.5 0.5V0H1174.5V0.5V1H1171.5V0.5ZM1177.5 0.5V0H1180.5V0.5V1H1177.5V0.5ZM1183.5 0.5V0H1186.5V0.5V1H1183.5V0.5ZM1189.5 0.5V0H1192.5V0.5V1H1189.5V0.5ZM1195.5 0.5V0H1198.5V0.5V1H1195.5V0.5ZM1201.5 0.5V0H1204.5V0.5V1H1201.5V0.5ZM1207.5 0.5V0H1210.5V0.5V1H1207.5V0.5Z" stroke="#2758DD" stroke-dasharray="3 3"/>
</svg>
