<svg width="47" height="50" viewBox="0 0 47 50" fill="none" xmlns="http://www.w3.org/2000/svg">
<g opacity="0.6">
<path d="M23.5029 25.2548C20.4155 25.2548 17.4302 23.9375 15.0937 21.5469C12.8217 19.2152 11.4341 16.1057 11.1894 12.7939C10.9281 9.26105 12.0558 6.01237 14.3639 3.64473C16.6719 1.27709 19.8989 0 23.5029 0C27.0813 0 30.3173 1.30005 32.6178 3.66195C34.9409 6.0468 36.0716 9.28975 35.8103 12.7924C35.5596 16.1085 34.1735 19.2166 31.9061 21.5455C29.5755 23.9375 26.5917 25.2548 23.5029 25.2548Z" fill="white"/>
<path d="M42.8622 49.7431H4.14088C3.51833 49.7464 2.90332 49.61 2.34316 49.3446C1.78301 49.0792 1.29265 48.6917 0.909819 48.212C0.503737 47.692 0.22331 47.089 0.0895282 46.4482C-0.0442532 45.8073 -0.0279214 45.1452 0.137302 44.5113C1.37392 39.6598 4.43755 35.6363 8.99629 32.8769C13.0425 30.4289 18.1931 29.0801 23.5008 29.0801C28.9129 29.0801 33.9283 30.3715 37.998 32.8181C42.567 35.5631 45.6351 39.6096 46.8658 44.52C47.029 45.1542 47.0436 45.8164 46.9083 46.4569C46.773 47.0974 46.4914 47.6999 46.0845 48.2192C45.702 48.6966 45.2128 49.0822 44.6543 49.3464C44.0958 49.6105 43.4827 49.7462 42.8622 49.7431Z" fill="white"/>
</g>
</svg>
