<svg width="100" height="100" viewBox="0 0 100 100" fill="none" xmlns="http://www.w3.org/2000/svg">
<defs>
    <path id="u" d="M42.8622 45.2563H4.14088C3.51833 45.2593 2.90332 45.1362 2.34316 44.8967C1.78301 44.6572 1.29265 44.3076 0.909819 43.8748C0.503737 43.4056 0.22331 42.8615 0.0895282 42.2832C-0.0442532 41.7049 -0.0279214 41.1074 0.137302 40.5355C1.37392 36.1578 4.43755 32.5272 8.99629 30.0373C13.0425 27.8284 18.1931 26.6113 23.5008 26.6113C28.9129 26.6113 33.9283 27.7766 37.998 29.9843C42.567 32.4612 45.6351 36.1125 46.8658 40.5433C47.029 41.1156 47.0436 41.7131 46.9083 42.2911C46.773 42.8691 46.4914 43.4126 46.0845 43.8813C45.702 44.3121 45.2128 44.66 44.6543 44.8983C44.0958 45.1367 43.4827 45.2591 42.8622 45.2563Z" fill="white"/>
</defs>
<circle cx="50" cy="50" r="50" fill="#C4C4C4"/>
<circle cx="50" cy="36" r="12" fill="#fff"/>
<use href="#u" x="27" y="26"></use>
</svg>
