<svg width="19" height="17" viewBox="0 0 19 17" fill="none" xmlns="http://www.w3.org/2000/svg">
<path fill-rule="evenodd" clip-rule="evenodd" d="M5.77308 4.74015C5.05516 4.4598 4.26478 4.42425 3.5246 4.63903C2.78441 4.8538 2.13581 5.30689 1.67946 5.92797C1.2231 6.54905 0.984514 7.3034 1.00071 8.07395C1.01691 8.84449 1.287 9.58815 1.76905 10.1895C2.2511 10.7909 2.91817 11.2163 3.66673 11.3998C4.41529 11.5832 5.20347 11.5145 5.90898 11.2042C6.61448 10.8939 7.19784 10.3595 7.56853 9.68377C7.93921 9.00805 8.0765 8.22887 7.95908 7.46715C7.93892 7.33607 7.97167 7.20235 8.0501 7.0954C8.12854 6.98846 8.24625 6.91706 8.37733 6.8969C8.50841 6.87675 8.64214 6.90949 8.74908 6.98792C8.85602 7.06636 8.92742 7.18407 8.94758 7.31515C9.09838 8.29448 8.92173 9.29621 8.44503 10.1649C7.96834 11.0336 7.21826 11.7206 6.31119 12.1194C5.40411 12.5182 4.39077 12.6065 3.4284 12.3705C2.46603 12.1346 1.60845 11.5876 0.98873 10.8144C0.36901 10.0413 0.0218052 9.08517 0.000993275 8.09452C-0.0198186 7.10386 0.286926 6.13403 0.873628 5.33553C1.46033 4.53702 2.29418 3.95448 3.24579 3.67832C4.1974 3.40215 5.21356 3.44779 6.13658 3.80815C6.19858 3.8314 6.25535 3.86674 6.30358 3.91211C6.35181 3.95748 6.39055 4.01198 6.41755 4.07244C6.44455 4.13291 6.45927 4.19813 6.46086 4.26433C6.46244 4.33053 6.45086 4.39639 6.42679 4.45808C6.40272 4.51976 6.36663 4.57605 6.32063 4.62368C6.27462 4.67131 6.21962 4.70933 6.1588 4.73552C6.09798 4.76172 6.03257 4.77557 5.96636 4.77628C5.90014 4.77699 5.83444 4.76454 5.77308 4.73965V4.74015Z" fill="#666666"/>
<path fill-rule="evenodd" clip-rule="evenodd" d="M4 16.5V12.5C4 12.3674 4.05268 12.2402 4.14645 12.1464C4.24021 12.0527 4.36739 12 4.5 12C4.63261 12 4.75979 12.0527 4.85355 12.1464C4.94732 12.2402 5 12.3674 5 12.5V16.5C5 16.6326 4.94732 16.7598 4.85355 16.8536C4.75979 16.9473 4.63261 17 4.5 17C4.36739 17 4.24021 16.9473 4.14645 16.8536C4.05268 16.7598 4 16.6326 4 16.5Z" fill="#666666"/>
<path fill-rule="evenodd" clip-rule="evenodd" d="M2.5 14C2.5 13.8674 2.55268 13.7402 2.64645 13.6464C2.74021 13.5527 2.86739 13.5 3 13.5H6C6.13261 13.5 6.25979 13.5527 6.35355 13.6464C6.44732 13.7402 6.5 13.8674 6.5 14C6.5 14.1326 6.44732 14.2598 6.35355 14.3536C6.25979 14.4473 6.13261 14.5 6 14.5H3C2.86739 14.5 2.74021 14.4473 2.64645 14.3536C2.55268 14.2598 2.5 14.1326 2.5 14Z" fill="#666666"/>
<path fill-rule="evenodd" clip-rule="evenodd" d="M11.4509 4.63151C10.8968 4.47508 10.3126 4.45776 9.75024 4.5811C9.18784 4.70443 8.66456 4.96461 8.22676 5.33856C7.78897 5.71251 7.45019 6.18869 7.24046 6.72489C7.03072 7.2611 6.9565 7.84076 7.02439 8.41251C7.0325 8.47789 7.02761 8.54422 7.01001 8.60771C6.9924 8.67119 6.96243 8.73057 6.9218 8.78243C6.88117 8.83429 6.8307 8.87761 6.77327 8.9099C6.71585 8.94219 6.65261 8.96282 6.58719 8.97059C6.52177 8.97837 6.45546 8.97314 6.39207 8.9552C6.32868 8.93727 6.26946 8.90698 6.21781 8.86609C6.16616 8.82519 6.1231 8.77449 6.09111 8.7169C6.05912 8.65931 6.03882 8.59597 6.03139 8.53051C5.91457 7.54652 6.1258 6.55149 6.63229 5.69983C7.13879 4.84816 7.91223 4.18748 8.83259 3.82032C9.75295 3.45316 10.7688 3.40004 11.7224 3.66921C12.676 3.93838 13.5142 4.51479 14.1067 5.30898C14.6993 6.10318 15.0131 7.07075 14.9996 8.06155C14.986 9.05235 14.6458 10.011 14.0318 10.7887C13.4177 11.5664 12.5641 12.1196 11.6035 12.3626C10.6428 12.6056 9.62886 12.5247 8.71889 12.1325C8.65858 12.1065 8.60397 12.0689 8.55819 12.0219C8.51241 11.9748 8.47635 11.9192 8.45207 11.8582C8.40303 11.735 8.40494 11.5973 8.45739 11.4755C8.50983 11.3537 8.60852 11.2577 8.73173 11.2087C8.85494 11.1596 8.99259 11.1616 9.11439 11.214C9.55452 11.4048 10.0292 11.503 10.5089 11.5027C10.9885 11.5023 11.4631 11.4034 11.9029 11.212C12.3428 11.0207 12.7386 10.7409 13.0659 10.3902C13.3931 10.0394 13.6448 9.62518 13.8052 9.17312C13.9657 8.72106 14.0315 8.24085 13.9986 7.76228C13.9658 7.28372 13.8349 6.81702 13.6141 6.39115C13.3934 5.96527 13.0874 5.58932 12.7153 5.28662C12.3432 4.98392 11.9128 4.76094 11.4509 4.63151Z" fill="#666666"/>
<path fill-rule="evenodd" clip-rule="evenodd" d="M13.3964 5.60281C13.3027 5.50904 13.25 5.38189 13.25 5.24931C13.25 5.11673 13.3027 4.98957 13.3964 4.89581L17.1464 1.14581C17.1925 1.09805 17.2477 1.05996 17.3087 1.03376C17.3697 1.00755 17.4353 0.99376 17.5017 0.993183C17.5681 0.992606 17.6339 1.00526 17.6954 1.0304C17.7568 1.05554 17.8126 1.09266 17.8596 1.13961C17.9065 1.18656 17.9437 1.24238 17.9688 1.30383C17.9939 1.36528 18.0066 1.43112 18.006 1.49751C18.0054 1.5639 17.9916 1.62951 17.9654 1.69051C17.9392 1.75151 17.9011 1.80668 17.8534 1.85281L14.1034 5.60281C14.0096 5.69654 13.8825 5.7492 13.7499 5.7492C13.6173 5.7492 13.4902 5.69654 13.3964 5.60281Z" fill="#666666"/>
<path fill-rule="evenodd" clip-rule="evenodd" d="M17.462 4.49967C17.3964 4.49882 17.3315 4.48504 17.2712 4.45913C17.2109 4.43321 17.1562 4.39567 17.1104 4.34863C17.0646 4.3016 17.0284 4.246 17.0041 4.18501C16.9798 4.12402 16.9677 4.05883 16.9685 3.99317L16.9935 2.00616L15.0065 2.03116C14.8739 2.03289 14.7461 1.98186 14.6511 1.88931C14.5561 1.79676 14.5018 1.67027 14.5 1.53766C14.4983 1.40506 14.5493 1.27719 14.6419 1.18221C14.7344 1.08722 14.8609 1.03289 14.9935 1.03116L18.0065 0.993164L17.9685 4.00566C17.9678 4.07137 17.954 4.13628 17.9281 4.19667C17.9023 4.25707 17.8647 4.31177 17.8177 4.35765C17.7706 4.40353 17.715 4.43969 17.654 4.46406C17.593 4.48842 17.5277 4.50052 17.462 4.49967Z" fill="#666666"/>
</svg>
