<svg width="18" height="18" viewBox="0 0 18 18" fill="none" xmlns="http://www.w3.org/2000/svg">
<path d="M9.00001 0.703125L8.54269 1.37137C8.54269 1.37137 8.23951 1.79494 7.94532 2.30287C7.79794 2.55769 7.65957 2.82375 7.54088 3.09375C7.42276 3.36375 7.31251 3.61238 7.31251 3.9375C7.31251 4.86281 8.07469 5.625 9.00001 5.625C9.92532 5.625 10.6875 4.86281 10.6875 3.9375C10.6875 3.61238 10.5778 3.36375 10.4591 3.09375C10.3404 2.82375 10.2021 2.55769 10.0547 2.30287C9.76051 1.79494 9.45676 1.37081 9.45676 1.37081L9.00001 0.703125ZM9.00001 5.625H7.31251V7.875H3.93751C2.69438 7.875 1.68751 8.88188 1.68751 10.125C1.6861 10.675 1.88621 11.2065 2.25001 11.619V15.75H15.75V11.619C16.1138 11.2065 16.3139 10.675 16.3125 10.125C16.3125 8.88188 15.3056 7.875 14.0625 7.875H10.6875V5.625H9.00001ZM9.00001 2.74219C9.03713 2.80406 9.03319 2.79956 9.07032 2.86538C9.20419 3.096 9.34707 3.34181 9.43932 3.5505C9.53157 3.75975 9.56251 3.95269 9.56251 3.9375C9.56251 4.24969 9.31219 4.5 9.00001 4.5C8.68782 4.5 8.43751 4.24969 8.43751 3.9375C8.43751 3.95269 8.46844 3.75975 8.56069 3.5505C8.65294 3.34237 8.79582 3.096 8.92969 2.86538C8.96682 2.79956 8.96288 2.8035 9.00001 2.74219ZM8.43751 6.75H9.56251V7.875H8.43751V6.75ZM3.93751 9H14.0625C14.7324 9 15.1875 9.45506 15.1875 10.125C15.1875 10.7949 14.7324 11.25 14.0625 11.25C13.3926 11.25 12.9375 10.7949 12.9375 10.125H11.8125C11.8125 10.7949 11.3574 11.25 10.6875 11.25C10.0176 11.25 9.56251 10.7949 9.56251 10.125H8.43751C8.43751 10.7949 7.98244 11.25 7.31251 11.25C6.64257 11.25 6.18751 10.7949 6.18751 10.125H5.06251C5.06251 10.7949 4.60744 11.25 3.93751 11.25C3.26757 11.25 2.81251 10.7949 2.81251 10.125C2.81251 9.45506 3.26757 9 3.93751 9ZM5.62501 11.619C5.83645 11.8576 6.09631 12.0485 6.38728 12.1789C6.67826 12.3092 6.99367 12.3761 7.31251 12.375C7.63135 12.3761 7.94676 12.3092 8.23773 12.1789C8.52871 12.0485 8.78857 11.8576 9.00001 11.619C9.21145 11.8576 9.47131 12.0485 9.76228 12.1789C10.0533 12.3092 10.3687 12.3761 10.6875 12.375C11.0063 12.3761 11.3218 12.3092 11.6127 12.1789C11.9037 12.0485 12.1636 11.8576 12.375 11.619C12.5864 11.8576 12.8463 12.0485 13.1373 12.1789C13.4283 12.3092 13.7437 12.3761 14.0625 12.375C14.2583 12.375 14.445 12.3334 14.625 12.2872V14.625H3.37501V12.2872C3.55501 12.3334 3.74176 12.375 3.93751 12.375C4.25635 12.3761 4.57176 12.3092 4.86273 12.1789C5.15371 12.0485 5.41357 11.8576 5.62501 11.619Z" fill="#666666"/>
</svg>
