<svg width="16" height="16" viewBox="0 0 16 16" fill="none" xmlns="http://www.w3.org/2000/svg">
<path fill-rule="evenodd" clip-rule="evenodd" d="M0.0527344 8.00033C0.0527344 5.8925 0.890069 3.871 2.38053 2.38053C3.871 0.890069 5.8925 0.0527344 8.00033 0.0527344C10.1082 0.0527344 12.1297 0.890069 13.6201 2.38053C15.1106 3.871 15.9479 5.8925 15.9479 8.00033C15.9479 10.1082 15.1106 12.1297 13.6201 13.6201C12.1297 15.1106 10.1082 15.9479 8.00033 15.9479C5.8925 15.9479 3.871 15.1106 2.38053 13.6201C0.890069 12.1297 0.0527344 10.1082 0.0527344 8.00033V8.00033ZM8.00033 1.19273C6.68083 1.19278 5.38978 1.57629 4.28425 2.29662C3.17871 3.01695 2.30634 4.04303 1.77326 5.25006C1.24018 6.45708 1.06937 7.79302 1.28161 9.09534C1.49385 10.3977 2.08 11.6102 2.96873 12.5855C3.50829 11.7404 4.25215 11.045 5.1316 10.5634C6.01104 10.0818 6.99768 9.82971 8.00033 9.83033C10.1147 9.83033 11.9723 10.9295 13.0319 12.5855C13.9207 11.6102 14.5068 10.3977 14.7191 9.09534C14.9313 7.79302 14.7605 6.45708 14.2274 5.25006C13.6943 4.04303 12.822 3.01695 11.7164 2.29662C10.6109 1.57629 9.31984 1.19278 8.00033 1.19273V1.19273ZM12.1787 13.3751C11.7541 12.6433 11.1446 12.0359 10.4112 11.6138C9.67786 11.1918 8.84646 10.9698 8.00033 10.9703C7.15421 10.9698 6.32281 11.1918 5.58946 11.6138C4.85611 12.0359 4.24658 12.6433 3.82193 13.3751C5.01565 14.3059 6.48661 14.8103 8.00033 14.8079C9.57473 14.8079 11.0243 14.2727 12.1787 13.3751ZM5.18033 6.80633C5.18033 6.05842 5.47744 5.34115 6.00629 4.81229C6.53515 4.28344 7.25242 3.98633 8.00033 3.98633C8.74825 3.98633 9.46552 4.28344 9.99438 4.81229C10.5232 5.34115 10.8203 6.05842 10.8203 6.80633C10.8203 7.55425 10.5232 8.27152 9.99438 8.80038C9.46552 9.32923 8.74825 9.62633 8.00033 9.62633C7.25242 9.62633 6.53515 9.32923 6.00629 8.80038C5.47744 8.27152 5.18033 7.55425 5.18033 6.80633V6.80633ZM8.00033 5.12633C7.77971 5.12633 7.56125 5.16979 7.35743 5.25422C7.1536 5.33865 6.9684 5.46239 6.8124 5.6184C6.65639 5.7744 6.53265 5.9596 6.44822 6.16343C6.36379 6.36725 6.32033 6.58571 6.32033 6.80633C6.32033 7.02696 6.36379 7.24542 6.44822 7.44924C6.53265 7.65307 6.65639 7.83827 6.8124 7.99427C6.9684 8.15028 7.1536 8.27402 7.35743 8.35845C7.56125 8.44288 7.77971 8.48634 8.00033 8.48634C8.4459 8.48634 8.87321 8.30934 9.18827 7.99427C9.50334 7.67921 9.68033 7.2519 9.68033 6.80633C9.68033 6.36077 9.50334 5.93346 9.18827 5.6184C8.87321 5.30333 8.4459 5.12633 8.00033 5.12633V5.12633Z" fill="#666666"/>
</svg>
