<svg width="20" height="20" viewBox="0 0 20 20" fill="none" xmlns="http://www.w3.org/2000/svg">
<path d="M10.8327 18.3337H4.16602C2.49935 18.3337 1.66602 17.5003 1.66602 15.8337V9.16699C1.66602 7.50033 2.49935 6.66699 4.16602 6.66699H8.33268V15.8337C8.33268 17.5003 9.16602 18.3337 10.8327 18.3337Z" stroke="#666666" stroke-miterlimit="10" stroke-linecap="round" stroke-linejoin="round"/>
<path d="M8.42434 3.33301C8.35767 3.58301 8.33268 3.85801 8.33268 4.16634V6.66634H4.16602V4.99967C4.16602 4.08301 4.91602 3.33301 5.83268 3.33301H8.42434Z" stroke="#666666" stroke-miterlimit="10" stroke-linecap="round" stroke-linejoin="round"/>
<path d="M11.666 6.66699V10.8337" stroke="#666666" stroke-miterlimit="10" stroke-linecap="round" stroke-linejoin="round"/>
<path d="M15 6.66699V10.8337" stroke="#666666" stroke-miterlimit="10" stroke-linecap="round" stroke-linejoin="round"/>
<path d="M14.166 14.167H12.4993C12.041 14.167 11.666 14.542 11.666 15.0003V18.3337H14.9993V15.0003C14.9993 14.542 14.6243 14.167 14.166 14.167Z" stroke="#666666" stroke-miterlimit="10" stroke-linecap="round" stroke-linejoin="round"/>
<path d="M5 10.833V14.1663" stroke="#666666" stroke-miterlimit="10" stroke-linecap="round" stroke-linejoin="round"/>
<path d="M8.33398 15.8337V4.16699C8.33398 2.50033 9.16732 1.66699 10.834 1.66699H15.834C17.5007 1.66699 18.334 2.50033 18.334 4.16699V15.8337C18.334 17.5003 17.5007 18.3337 15.834 18.3337H10.834C9.16732 18.3337 8.33398 17.5003 8.33398 15.8337Z" stroke="#666666" stroke-miterlimit="10" stroke-linecap="round" stroke-linejoin="round"/>
</svg>
