<svg width="21" height="20" viewBox="0 0 21 20" fill="none" xmlns="http://www.w3.org/2000/svg">
<path d="M0.00195312 10.0023C0.00251636 12.3836 0.852424 14.6867 2.39892 16.4975C3.94541 18.3083 6.08707 19.5081 8.43895 19.8813V12.8923H5.90195V10.0023H8.44195V7.80232C8.38587 7.28741 8.44385 6.76647 8.61177 6.27649C8.7797 5.78651 9.05345 5.33952 9.41359 4.96726C9.77373 4.59499 10.2114 4.3066 10.6956 4.12255C11.1797 3.9385 11.6985 3.86331 12.215 3.90232C12.965 3.91432 13.715 3.98132 14.455 4.10232V6.56132H13.191C12.9761 6.53319 12.7577 6.55369 12.5519 6.62131C12.346 6.68893 12.158 6.80194 12.0017 6.95199C11.8454 7.10204 11.7249 7.2853 11.6489 7.48822C11.573 7.69114 11.5436 7.90853 11.563 8.12432V10.0023H14.334L13.891 12.8933H11.563V19.8813C13.4506 19.583 15.2132 18.7501 16.6421 17.4811C18.071 16.2121 19.1064 14.5603 19.6257 12.7211C20.145 10.882 20.1264 8.93257 19.5721 7.10366C19.0179 5.27475 17.9512 3.64296 16.4983 2.40147C15.0455 1.15998 13.2673 0.360794 11.3743 0.098529C9.48135 -0.163736 7.55287 0.121903 5.81721 0.921628C4.08154 1.72135 2.61137 3.00167 1.58076 4.611C0.550147 6.22033 0.0022565 8.09128 0.00195312 10.0023Z" fill="#3B5998"/>
</svg>
