<svg width="18" height="18" viewBox="0 0 18 18" fill="none" xmlns="http://www.w3.org/2000/svg">
<path d="M12.8998 16.4998C14.888 16.4998 16.4998 14.888 16.4998 12.8998C16.4998 10.9116 14.888 9.2998 12.8998 9.2998C10.9116 9.2998 9.2998 10.9116 9.2998 12.8998C9.2998 14.888 10.9116 16.4998 12.8998 16.4998Z" stroke="white" stroke-miterlimit="10" stroke-linecap="round" stroke-linejoin="round"/>
<path d="M14.2426 12.9448H11.5576" stroke="white" stroke-miterlimit="10" stroke-linecap="round" stroke-linejoin="round"/>
<path d="M12.9004 11.6323V14.3248" stroke="white" stroke-miterlimit="10" stroke-linecap="round" stroke-linejoin="round"/>
<path d="M16.5 6.51772C16.5 7.99522 16.1175 9.30019 15.5175 10.4327C14.8575 9.73519 13.9275 9.30023 12.9 9.30023C10.9125 9.30023 9.30002 10.9127 9.30002 12.9002C9.30002 13.8227 9.6525 14.6627 10.2225 15.3002C9.945 15.4277 9.69 15.5327 9.465 15.6077C9.21 15.6977 8.79 15.6977 8.535 15.6077C6.36 14.8652 1.5 11.7677 1.5 6.51772C1.5 4.20022 3.3675 2.3252 5.67 2.3252C7.0275 2.3252 8.2425 2.98523 9 3.99773C9.7575 2.98523 10.9725 2.3252 12.33 2.3252C14.6325 2.3252 16.5 4.20022 16.5 6.51772Z" stroke="white" stroke-linecap="round" stroke-linejoin="round"/>
</svg>
