<svg width="31" height="31" viewBox="0 0 31 31" fill="none" xmlns="http://www.w3.org/2000/svg">
<path fill-rule="evenodd" clip-rule="evenodd" d="M0.916016 5.25359C0.916016 4.10332 1.37296 3.00017 2.18632 2.18681C2.99968 1.37345 4.10283 0.916504 5.2531 0.916504H14.1781C15.3273 0.916504 16.4312 1.37296 17.245 2.18671L28.8125 13.7542C29.2155 14.157 29.5351 14.6352 29.7532 15.1615C29.9713 15.6879 30.0836 16.2521 30.0836 16.8218C30.0836 17.3916 29.9713 17.9557 29.7532 18.4821C29.5351 19.0084 29.2155 19.4867 28.8125 19.8894L19.8875 28.813C19.4847 29.2157 19.0066 29.5352 18.4804 29.7532C17.9542 29.9712 17.3902 30.0834 16.8206 30.0834C16.251 30.0834 15.687 29.9712 15.1608 29.7532C14.6346 29.5352 14.1565 29.2157 13.7537 28.813L2.18622 17.2455C1.78349 16.8427 1.46404 16.3646 1.2461 15.8384C1.02815 15.3121 0.915991 14.7481 0.916016 14.1786V5.25359ZM8.86831 11.0373C9.44344 11.0373 9.99502 10.8089 10.4017 10.4022C10.8084 9.9955 11.0368 9.44393 11.0368 8.86879C11.0368 8.29366 10.8084 7.74208 10.4017 7.3354C9.99502 6.92872 9.44344 6.70025 8.86831 6.70025C8.29317 6.70025 7.7416 6.92872 7.33492 7.3354C6.92824 7.74208 6.69976 8.29366 6.69976 8.86879C6.69976 9.44393 6.92824 9.9955 7.33492 10.4022C7.7416 10.8089 8.29317 11.0373 8.86831 11.0373Z" fill="#FFAE28"/>
</svg>
