<svg width="28" height="28" viewBox="0 0 28 28" fill="none" xmlns="http://www.w3.org/2000/svg">
<path d="M11.6667 13.9993C14.244 13.9993 16.3333 11.91 16.3333 9.33268C16.3333 6.75535 14.244 4.66602 11.6667 4.66602C9.08934 4.66602 7 6.75535 7 9.33268C7 11.91 9.08934 13.9993 11.6667 13.9993Z" fill="#FFAE28"/>
<path d="M12.0747 16.345C8.88968 16.2283 2.33301 17.815 2.33301 21V23.3333H13.463C10.5813 20.1133 12.028 16.4617 12.0747 16.345ZM22.668 21.0233C23.088 20.335 23.333 19.53 23.333 18.6667C23.333 16.0883 21.2447 14 18.6663 14C16.088 14 13.9997 16.0883 13.9997 18.6667C13.9997 21.245 16.088 23.3333 18.6663 23.3333C19.5297 23.3333 20.3347 23.0767 21.023 22.6683L24.0213 25.6667L25.6663 24.0217L22.668 21.0233ZM18.6663 21C17.383 21 16.333 19.95 16.333 18.6667C16.333 17.3833 17.383 16.3333 18.6663 16.3333C19.9497 16.3333 20.9997 17.3833 20.9997 18.6667C20.9997 19.95 19.9497 21 18.6663 21Z" fill="#FFAE28"/>
</svg>
