<svg width="21" height="22" viewBox="0 0 21 22" fill="none" xmlns="http://www.w3.org/2000/svg">
<path d="M13.8669 1.80545L6.7142 8.95812C3.7212 11.9586 1.45465 15.6044 0.0881588 19.6161C0.0229925 19.8058 0.0126139 20.0101 0.0582127 20.2055C0.103812 20.4009 0.203542 20.5794 0.345971 20.7207L0.34971 20.7245C0.448824 20.8243 0.566705 20.9036 0.696572 20.9578C0.82644 21.0119 0.965731 21.0398 1.10643 21.0399C1.22483 21.0399 1.34241 21.0204 1.45448 20.9822C5.46621 19.6157 9.11195 17.3491 12.1124 14.3561L19.2649 7.20349C19.9807 6.48767 20.3829 5.51681 20.3829 4.50449C20.3829 3.49216 19.9807 2.5213 19.2649 1.80548C18.9105 1.45104 18.4897 1.16988 18.0266 0.978055C17.5635 0.786233 17.0672 0.687502 16.5659 0.6875C15.5536 0.687496 14.5827 1.08964 13.8669 1.80545V1.80545ZM11.14 13.3839C8.43652 16.0802 5.18037 18.1582 1.5961 19.4743C2.9122 15.89 4.99009 12.6338 7.68645 9.93037L11.9473 5.66955L15.4008 9.12303L11.14 13.3839ZM18.2926 6.23124L16.3731 8.15078L12.9196 4.69729L14.8392 2.77771C15.0658 2.55041 15.335 2.37002 15.6315 2.24686C15.9279 2.1237 16.2457 2.06019 16.5667 2.05996C16.8876 2.05973 17.2055 2.12278 17.5021 2.24551C17.7987 2.36824 18.0682 2.54824 18.2952 2.77521C18.5222 3.00219 18.7021 3.27168 18.8249 3.56828C18.9476 3.86488 19.0106 4.18276 19.0104 4.50375C19.0102 4.82474 18.9467 5.14253 18.8235 5.43895C18.7003 5.73537 18.5199 6.0046 18.2926 6.23124Z" fill="#666666"/>
</svg>
