<svg width="30" height="31" viewBox="0 0 30 31" fill="none" xmlns="http://www.w3.org/2000/svg">
<path d="M21.6877 12.146L18.7627 21.571C18.0627 23.8085 14.9252 23.846 14.1877 21.621L13.3127 19.0335C13.0752 18.321 12.5127 17.746 11.8002 17.521L9.20021 16.646C6.98771 15.9085 7.02521 12.746 9.26271 12.071L18.6877 9.13348C20.5377 8.57098 22.2752 10.3085 21.6877 12.146Z" stroke="white" stroke-width="1.5" stroke-linecap="round" stroke-linejoin="round"/>
<path d="M11.25 28.3335H18.75C25 28.3335 27.5 25.8335 27.5 19.5835V12.0835C27.5 5.8335 25 3.3335 18.75 3.3335H11.25C5 3.3335 2.5 5.8335 2.5 12.0835V19.5835C2.5 25.8335 5 28.3335 11.25 28.3335Z" stroke="white" stroke-width="1.5" stroke-linecap="round" stroke-linejoin="round"/>
</svg>
