<svg width="28" height="28" viewBox="0 0 28 28" fill="none" xmlns="http://www.w3.org/2000/svg">
<path d="M20.0668 25.6668C23.1596 25.6668 25.6668 23.1596 25.6668 20.0668C25.6668 16.974 23.1596 14.4668 20.0668 14.4668C16.974 14.4668 14.4668 16.974 14.4668 20.0668C14.4668 23.1596 16.974 25.6668 20.0668 25.6668Z" stroke="#FFAE28" stroke-width="1.5" stroke-miterlimit="10" stroke-linecap="round" stroke-linejoin="round"/>
<path d="M22.1552 20.1367H17.9785" stroke="#FFAE28" stroke-width="1.5" stroke-miterlimit="10" stroke-linecap="round" stroke-linejoin="round"/>
<path d="M20.0664 18.0947V22.283" stroke="#FFAE28" stroke-width="1.5" stroke-miterlimit="10" stroke-linecap="round" stroke-linejoin="round"/>
<path d="M25.6663 10.1379C25.6663 12.4362 25.0713 14.4662 24.138 16.2279C23.1113 15.1429 21.6647 14.4663 20.0664 14.4663C16.9747 14.4663 14.4664 16.9746 14.4664 20.0663C14.4664 21.5013 15.0147 22.8079 15.9013 23.7996C15.4697 23.9979 15.073 24.1612 14.723 24.2779C14.3263 24.4179 13.673 24.4179 13.2763 24.2779C9.89301 23.1229 2.33301 18.3046 2.33301 10.1379C2.33301 6.53291 5.23801 3.61621 8.81967 3.61621C10.9313 3.61621 12.8213 4.64293 13.9997 6.21793C15.178 4.64293 17.068 3.61621 19.1797 3.61621C22.7613 3.61621 25.6663 6.53291 25.6663 10.1379Z" stroke="#FFAE28" stroke-width="1.5" stroke-linecap="round" stroke-linejoin="round"/>
</svg>
