<svg width="18" height="18" viewBox="0 0 18 18" fill="none" xmlns="http://www.w3.org/2000/svg">
<path d="M12.9156 1.5H6.72065C6.42065 1.5 6.13563 1.605 5.90313 1.785L4.26062 3.0975C3.60062 3.6225 3.60062 4.61999 4.26062 5.14499L5.90313 6.45749C6.13563 6.64499 6.42815 6.74249 6.72065 6.74249H12.9156C13.6431 6.74249 14.2281 6.15749 14.2281 5.42999V2.80499C14.2281 2.08499 13.6431 1.5 12.9156 1.5Z" stroke="#2758DD" stroke-linecap="round" stroke-linejoin="round"/>
<path d="M5.09961 9H11.2946C11.5946 9 11.8796 9.105 12.1121 9.285L13.7546 10.5975C14.4146 11.1225 14.4146 12.12 13.7546 12.645L12.1121 13.9575C11.8796 14.145 11.5871 14.2425 11.2946 14.2425H5.09961C4.37211 14.2425 3.78711 13.6575 3.78711 12.93V10.305C3.78711 9.58499 4.37211 9 5.09961 9Z" stroke="#2758DD" stroke-linecap="round" stroke-linejoin="round"/>
<path d="M9 9V6.75" stroke="#2758DD" stroke-linecap="round" stroke-linejoin="round"/>
<path d="M9 16.5V14.25" stroke="#2758DD" stroke-linecap="round" stroke-linejoin="round"/>
<path d="M6.75 16.5H11.25" stroke="#2758DD" stroke-linecap="round" stroke-linejoin="round"/>
</svg>
