<svg width="18" height="18" viewBox="0 0 18 18" fill="none" xmlns="http://www.w3.org/2000/svg">
<path d="M7.53812 1.89747L3.02312 4.84497C1.57563 5.78997 1.57563 7.90497 3.02312 8.84997L7.53812 11.7975C8.34812 12.33 9.68312 12.33 10.4931 11.7975L14.9856 8.84997C16.4256 7.90497 16.4256 5.79747 14.9856 4.85247L10.4931 1.90497C9.68312 1.36497 8.34812 1.36497 7.53812 1.89747Z" stroke="#2758DD" stroke-linecap="round" stroke-linejoin="round"/>
<path d="M4.22234 9.81006L4.21484 13.3276C4.21484 14.2801 4.94984 15.3001 5.84984 15.6001L8.24234 16.3951C8.65484 16.5301 9.33734 16.5301 9.75734 16.3951L12.1498 15.6001C13.0498 15.3001 13.7848 14.2801 13.7848 13.3276V9.84756" stroke="#2758DD" stroke-linecap="round" stroke-linejoin="round"/>
<path d="M16.0508 11.25V6.75" stroke="#2758DD" stroke-linecap="round" stroke-linejoin="round"/>
</svg>
