<svg width="18" height="18" viewBox="0 0 18 18" fill="none" xmlns="http://www.w3.org/2000/svg">
<path d="M12.6758 12.675C14.7008 10.65 14.7008 7.275 12.6758 5.25" stroke="#666666" stroke-miterlimit="10" stroke-linecap="round" stroke-linejoin="round"/>
<path d="M5.32539 5.3252C3.30039 7.3502 3.30039 10.7252 5.32539 12.7502" stroke="#666666" stroke-miterlimit="10" stroke-linecap="round" stroke-linejoin="round"/>
<path d="M7.27539 10.1996C7.27539 10.8746 7.80039 11.3996 8.47539 11.3996H9.75039C10.2754 11.3996 10.8004 10.9496 10.8004 10.3496C10.8004 9.67461 10.5004 9.44961 10.1254 9.29961L8.02539 8.54961C7.50039 8.47461 7.27539 8.24961 7.27539 7.64961C7.27539 7.04961 7.72539 6.59961 8.32539 6.59961H9.67539C10.3504 6.59961 10.8754 7.12461 10.8754 7.79961" stroke="#666666" stroke-linecap="round" stroke-linejoin="round"/>
<path d="M9 5.84961V12.1496" stroke="#666666" stroke-linecap="round" stroke-linejoin="round"/>
<path d="M9 16.5C13.1421 16.5 16.5 13.1421 16.5 9C16.5 4.85786 13.1421 1.5 9 1.5C4.85786 1.5 1.5 4.85786 1.5 9C1.5 13.1421 4.85786 16.5 9 16.5Z" stroke="#666666" stroke-miterlimit="10" stroke-linecap="round" stroke-linejoin="round"/>
</svg>
