<svg width="28" height="28" viewBox="0 0 28 28" fill="none" xmlns="http://www.w3.org/2000/svg">
<path d="M20.7095 3.5L20.9253 3.50583C21.8549 3.55876 22.7325 3.95188 23.3909 4.61026C24.0493 5.26864 24.4424 6.14625 24.4953 7.07583L24.5012 7.29167V14.0257C23.9558 13.676 23.3676 13.398 22.7512 13.1985L22.75 9.33333H5.25117L5.25 20.7083C5.25002 21.2207 5.4427 21.7144 5.78979 22.0913C6.13689 22.4682 6.61302 22.7008 7.12367 22.743L7.29167 22.75H13.1997C13.4003 23.373 13.6803 23.9598 14.0257 24.5H7.29167C6.32317 24.5001 5.39137 24.1295 4.6874 23.4644C3.98343 22.7992 3.56067 21.8899 3.50583 20.923L3.5 20.7083V7.29167C3.49994 6.32317 3.87048 5.39137 4.53562 4.6874C5.20075 3.98343 6.11006 3.56067 7.077 3.50583L7.29167 3.5H20.7095ZM20.7095 5.25H7.29283C6.75135 5.25 6.23204 5.4651 5.84916 5.84799C5.46627 6.23088 5.25117 6.75018 5.25117 7.29167V7.58333H22.7512V7.29167C22.7512 6.75018 22.5361 6.23088 22.1532 5.84799C21.7703 5.4651 21.251 5.25 20.7095 5.25ZM11.9583 11.0833C12.1698 11.0833 12.3741 11.1599 12.5334 11.2989C12.6928 11.4379 12.7964 11.6299 12.8252 11.8393L12.8333 11.9583V20.125C12.8333 20.3364 12.7568 20.5407 12.6178 20.7001C12.4788 20.8594 12.2868 20.9631 12.0773 20.9918L11.9583 21H7.875C7.66356 21 7.45927 20.9234 7.29991 20.7844C7.14056 20.6455 7.03692 20.4535 7.00817 20.244L7 20.125V11.9583C7.00001 11.7469 7.07658 11.5426 7.21556 11.3832C7.35454 11.2239 7.54652 11.1203 7.756 11.0915L7.875 11.0833H11.9583ZM11.0833 12.8333H8.75V19.25H11.0833V12.8333ZM21 11.9583C21 11.7263 20.9078 11.5037 20.7437 11.3396C20.5796 11.1755 20.3571 11.0833 20.125 11.0833H14.8797L14.7618 11.0915C14.5423 11.1217 14.3424 11.2341 14.2025 11.4059C14.0626 11.5778 13.9931 11.7963 14.0081 12.0174C14.023 12.2385 14.1213 12.4457 14.2831 12.5971C14.4449 12.7485 14.6581 12.833 14.8797 12.8333H20.125L20.244 12.8252C20.4535 12.7964 20.6455 12.6928 20.7844 12.5334C20.9234 12.3741 21 12.1698 21 11.9583ZM16.66 16.3042C16.7472 16.606 16.7726 16.9222 16.7346 17.2341C16.6967 17.5459 16.5961 17.8469 16.439 18.1189C16.2819 18.3909 16.0715 18.6284 15.8204 18.8172C15.5693 19.0059 15.2826 19.142 14.9777 19.2173L14.2963 19.3853C14.1871 20.084 14.1895 20.7956 14.3033 21.4935L14.9333 21.6452C15.2408 21.7192 15.5301 21.8551 15.7835 22.0444C16.0369 22.2337 16.2491 22.4726 16.4073 22.7464C16.5656 23.0203 16.6665 23.3235 16.7039 23.6376C16.7413 23.9517 16.7145 24.2701 16.625 24.5735L16.4068 25.3108C16.9202 25.7612 17.5035 26.1263 18.1382 26.3853L18.7145 25.781C18.9325 25.5517 19.1948 25.3692 19.4855 25.2444C19.7762 25.1197 20.0892 25.0554 20.4056 25.0554C20.7219 25.0554 21.035 25.1197 21.3257 25.2444C21.6164 25.3692 21.8787 25.5517 22.0967 25.781L22.6777 26.3935C23.3094 26.1367 23.894 25.7767 24.4078 25.3283L24.1768 24.528C24.0898 24.2263 24.0646 23.9101 24.1026 23.5984C24.1407 23.2867 24.2413 22.9859 24.3983 22.714C24.5554 22.4421 24.7658 22.2047 25.0168 22.016C25.2678 21.8274 25.5543 21.6913 25.8592 21.616L26.5393 21.448C26.6487 20.749 26.6463 20.037 26.5323 19.3387L25.9023 19.187C25.5948 19.1129 25.3056 18.9771 25.0522 18.7878C24.7988 18.5985 24.5865 18.3596 24.4283 18.0857C24.2701 17.8118 24.1692 17.5086 24.1318 17.1946C24.0944 16.8805 24.1212 16.5621 24.2107 16.2587L24.4288 15.5237C23.9155 15.071 23.3304 14.7071 22.6975 14.4468L22.1223 15.0523C21.9044 15.2818 21.642 15.4645 21.3512 15.5893C21.0603 15.7142 20.7472 15.7786 20.4307 15.7786C20.1142 15.7786 19.801 15.7142 19.5102 15.5893C19.2194 15.4645 18.957 15.2818 18.739 15.0523L18.158 14.4398C17.5233 14.6965 16.94 15.0582 16.4278 15.5038L16.6588 16.3042H16.66ZM20.4167 22.1667C19.4833 22.1667 18.725 21.3827 18.725 20.4167C18.725 19.4495 19.4833 18.6667 20.4167 18.6667C21.35 18.6667 22.1083 19.4495 22.1083 20.4167C22.1083 21.3827 21.35 22.1667 20.4167 22.1667Z" fill="#FFAE28"/>
</svg>
