<svg width="28" height="28" viewBox="0 0 28 28" fill="none" xmlns="http://www.w3.org/2000/svg">
<path d="M13.999 12.4688C13.302 12.4687 12.6293 12.7246 12.1086 13.1878C11.5879 13.6511 11.2554 14.2895 11.1745 14.9818C11.0935 15.6741 11.2696 16.372 11.6693 16.9429C12.0691 17.5139 12.6646 17.9182 13.3428 18.0789V20.125C13.3428 20.299 13.4119 20.466 13.535 20.589C13.6581 20.7121 13.825 20.7812 13.999 20.7812C14.1731 20.7812 14.34 20.7121 14.4631 20.589C14.5861 20.466 14.6553 20.299 14.6553 20.125V18.0789C15.3335 17.9182 15.929 17.5139 16.3287 16.9429C16.7285 16.372 16.9046 15.6741 16.8236 14.9818C16.7426 14.2895 16.4102 13.6511 15.8895 13.1878C15.3688 12.7246 14.696 12.4687 13.999 12.4688ZM13.999 16.8438C13.6962 16.8438 13.4001 16.7539 13.1483 16.5857C12.8965 16.4174 12.7002 16.1783 12.5843 15.8985C12.4684 15.6187 12.4381 15.3108 12.4972 15.0138C12.5563 14.7167 12.7021 14.4439 12.9163 14.2297C13.1304 14.0156 13.4033 13.8698 13.7003 13.8107C13.9973 13.7516 14.3052 13.7819 14.585 13.8978C14.8648 14.0137 15.104 14.21 15.2722 14.4618C15.4405 14.7136 15.5303 15.0096 15.5303 15.3125C15.5298 15.7185 15.3683 16.1077 15.0813 16.3947C14.7942 16.6818 14.405 16.8433 13.999 16.8438ZM22.749 8.96875H18.5928V5.6875C18.5928 5.08424 18.474 4.48689 18.2431 3.92955C18.0122 3.37221 17.6739 2.8658 17.2473 2.43923C16.8207 2.01266 16.3143 1.67429 15.757 1.44343C15.1996 1.21257 14.6023 1.09375 13.999 1.09375C13.3958 1.09375 12.7984 1.21257 12.2411 1.44343C11.6837 1.67429 11.1773 2.01266 10.7508 2.43923C10.3242 2.8658 9.98581 3.37221 9.75495 3.92955C9.5241 4.48689 9.40527 5.08424 9.40527 5.6875V8.96875H5.24902C4.84305 8.96921 4.45384 9.13069 4.16678 9.41775C3.87971 9.70482 3.71824 10.094 3.71777 10.5V22.75C3.71824 23.156 3.87971 23.5452 4.16678 23.8322C4.45384 24.1193 4.84305 24.2808 5.24902 24.2812H22.749C23.155 24.2808 23.5442 24.1193 23.8313 23.8322C24.1183 23.5452 24.2798 23.156 24.2803 22.75V10.5C24.2798 10.094 24.1183 9.70482 23.8313 9.41775C23.5442 9.13069 23.155 8.96921 22.749 8.96875ZM10.7178 5.6875C10.7178 5.2566 10.8026 4.82992 10.9675 4.43182C11.1324 4.03372 11.3741 3.672 11.6788 3.36731C11.9835 3.06261 12.3452 2.82092 12.7433 2.65602C13.1414 2.49112 13.5681 2.40625 13.999 2.40625C14.4299 2.40625 14.8566 2.49112 15.2547 2.65602C15.6528 2.82092 16.0145 3.06261 16.3192 3.36731C16.6239 3.672 16.8656 4.03372 17.0305 4.43182C17.1954 4.82992 17.2803 5.2566 17.2803 5.6875V8.96875H10.7178V5.6875ZM22.9678 22.75C22.9677 22.808 22.9447 22.8636 22.9036 22.9046C22.8626 22.9456 22.807 22.9687 22.749 22.9688H5.24902C5.19103 22.9687 5.13542 22.9456 5.09441 22.9046C5.0534 22.8636 5.03033 22.808 5.03027 22.75V10.5C5.03033 10.442 5.0534 10.3864 5.09441 10.3454C5.13542 10.3044 5.19103 10.2813 5.24902 10.2812H22.749C22.807 10.2813 22.8626 10.3044 22.9036 10.3454C22.9447 10.3864 22.9677 10.442 22.9678 10.5V22.75Z" fill="#FFAE28"/>
</svg>
