<svg width="24" height="24" viewBox="0 0 24 24" fill="none" xmlns="http://www.w3.org/2000/svg">
<path d="M11.999 10.6875C11.4016 10.6874 10.825 10.9068 10.3786 11.3039C9.93231 11.701 9.64738 12.2482 9.57797 12.8416C9.50856 13.4349 9.65951 14.0331 10.0021 14.5225C10.3448 15.0119 10.8552 15.3584 11.4365 15.4962V17.25C11.4365 17.3992 11.4958 17.5423 11.6013 17.6477C11.7068 17.7532 11.8498 17.8125 11.999 17.8125C12.1482 17.8125 12.2913 17.7532 12.3968 17.6477C12.5023 17.5423 12.5615 17.3992 12.5615 17.25V15.4962C13.1428 15.3584 13.6533 15.0119 13.9959 14.5225C14.3385 14.0331 14.4895 13.4349 14.4201 12.8416C14.3507 12.2482 14.0657 11.701 13.6194 11.3039C13.1731 10.9068 12.5964 10.6874 11.999 10.6875ZM11.999 14.4375C11.7394 14.4375 11.4857 14.3605 11.2698 14.2163C11.054 14.0721 10.8858 13.8671 10.7864 13.6273C10.6871 13.3874 10.6611 13.1235 10.7117 12.8689C10.7624 12.6143 10.8874 12.3805 11.0709 12.1969C11.2545 12.0134 11.4884 11.8884 11.743 11.8377C11.9976 11.7871 12.2615 11.8131 12.5013 11.9124C12.7411 12.0117 12.9461 12.18 13.0903 12.3958C13.2345 12.6117 13.3115 12.8654 13.3115 13.125C13.3111 13.473 13.1727 13.8066 12.9267 14.0526C12.6806 14.2987 12.347 14.4371 11.999 14.4375ZM19.499 7.6875H15.9365V4.875C15.9365 4.35792 15.8347 3.8459 15.6368 3.36818C15.4389 2.89046 15.1489 2.4564 14.7833 2.09077C14.4176 1.72514 13.9836 1.4351 13.5058 1.23722C13.0281 1.03935 12.5161 0.9375 11.999 0.9375C11.4819 0.9375 10.9699 1.03935 10.4922 1.23722C10.0145 1.4351 9.58042 1.72514 9.21479 2.09077C8.84916 2.4564 8.55913 2.89046 8.36125 3.36818C8.16337 3.8459 8.06152 4.35792 8.06152 4.875V7.6875H4.49902C4.15105 7.6879 3.81744 7.8263 3.57138 8.07236C3.32533 8.31842 3.18692 8.65203 3.18652 9V19.5C3.18692 19.848 3.32533 20.1816 3.57138 20.4276C3.81744 20.6737 4.15105 20.8121 4.49902 20.8125H19.499C19.847 20.8121 20.1806 20.6737 20.4267 20.4276C20.6727 20.1816 20.8111 19.848 20.8115 19.5V9C20.8111 8.65203 20.6727 8.31842 20.4267 8.07236C20.1806 7.8263 19.847 7.6879 19.499 7.6875ZM9.18652 4.875C9.18652 4.50566 9.25927 4.13993 9.40061 3.7987C9.54195 3.45747 9.74912 3.14743 10.0103 2.88626C10.2715 2.6251 10.5815 2.41793 10.9227 2.27659C11.264 2.13525 11.6297 2.0625 11.999 2.0625C12.3684 2.0625 12.7341 2.13525 13.0753 2.27659C13.4165 2.41793 13.7266 2.6251 13.9878 2.88626C14.2489 3.14743 14.4561 3.45747 14.5974 3.7987C14.7388 4.13993 14.8115 4.50566 14.8115 4.875V7.6875H9.18652V4.875ZM19.6865 19.5C19.6865 19.5497 19.6667 19.5974 19.6316 19.6325C19.5964 19.6677 19.5487 19.6875 19.499 19.6875H4.49902C4.44931 19.6875 4.40165 19.6677 4.3665 19.6325C4.33134 19.5974 4.31157 19.5497 4.31152 19.5V9C4.31157 8.95029 4.33134 8.90262 4.3665 8.86747C4.40165 8.83232 4.44931 8.81255 4.49902 8.8125H19.499C19.5487 8.81255 19.5964 8.83232 19.6316 8.86747C19.6667 8.90262 19.6865 8.95029 19.6865 9V19.5Z" fill="#2758DD" fill-opacity="0.7"/>
</svg>
