<svg width="28" height="28" viewBox="0 0 28 28" fill="none" xmlns="http://www.w3.org/2000/svg">
<path d="M14 12.4688C13.303 12.4687 12.6303 12.7246 12.1096 13.1878C11.5888 13.6511 11.2564 14.2895 11.1754 14.9818C11.0945 15.6741 11.2706 16.372 11.6703 16.9429C12.07 17.5139 12.6656 17.9182 13.3438 18.0789V20.125C13.3438 20.299 13.4129 20.466 13.536 20.589C13.659 20.7121 13.826 20.7812 14 20.7812C14.174 20.7812 14.341 20.7121 14.464 20.589C14.5871 20.466 14.6563 20.299 14.6563 20.125V18.0789C15.3344 17.9182 15.93 17.5139 16.3297 16.9429C16.7294 16.372 16.9055 15.6741 16.8246 14.9818C16.7436 14.2895 16.4112 13.6511 15.8904 13.1878C15.3697 12.7246 14.697 12.4687 14 12.4688ZM14 16.8438C13.6971 16.8438 13.4011 16.7539 13.1493 16.5857C12.8975 16.4174 12.7012 16.1783 12.5853 15.8985C12.4694 15.6187 12.4391 15.3108 12.4982 15.0138C12.5573 14.7167 12.7031 14.4439 12.9172 14.2297C13.1314 14.0156 13.4042 13.8698 13.7013 13.8107C13.9983 13.7516 14.3062 13.7819 14.586 13.8978C14.8658 14.0137 15.1049 14.21 15.2732 14.4618C15.4414 14.7136 15.5313 15.0096 15.5313 15.3125C15.5308 15.7185 15.3693 16.1077 15.0822 16.3947C14.7952 16.6818 14.406 16.8433 14 16.8438ZM22.75 8.96875H18.5938V5.6875C18.5938 5.08424 18.4749 4.48689 18.2441 3.92955C18.0132 3.37221 17.6748 2.8658 17.2483 2.43923C16.8217 2.01266 16.3153 1.67429 15.758 1.44343C15.2006 1.21257 14.6033 1.09375 14 1.09375C13.3967 1.09375 12.7994 1.21257 12.242 1.44343C11.6847 1.67429 11.1783 2.01266 10.7517 2.43923C10.3252 2.8658 9.98679 3.37221 9.75593 3.92955C9.52507 4.48689 9.40625 5.08424 9.40625 5.6875V8.96875H5.25C4.84403 8.96921 4.45482 9.13069 4.16775 9.41775C3.88069 9.70482 3.71921 10.094 3.71875 10.5V22.75C3.71921 23.156 3.88069 23.5452 4.16775 23.8322C4.45482 24.1193 4.84403 24.2808 5.25 24.2812H22.75C23.156 24.2808 23.5452 24.1193 23.8322 23.8322C24.1193 23.5452 24.2808 23.156 24.2813 22.75V10.5C24.2808 10.094 24.1193 9.70482 23.8322 9.41775C23.5452 9.13069 23.156 8.96921 22.75 8.96875ZM10.7188 5.6875C10.7188 5.2566 10.8036 4.82992 10.9685 4.43182C11.1334 4.03372 11.3751 3.672 11.6798 3.36731C11.9845 3.06261 12.3462 2.82092 12.7443 2.65602C13.1424 2.49112 13.5691 2.40625 14 2.40625C14.4309 2.40625 14.8576 2.49112 15.2557 2.65602C15.6538 2.82092 16.0155 3.06261 16.3202 3.36731C16.6249 3.672 16.8666 4.03372 17.0315 4.43182C17.1964 4.82992 17.2813 5.2566 17.2813 5.6875V8.96875H10.7188V5.6875ZM22.9688 22.75C22.9687 22.808 22.9456 22.8636 22.9046 22.9046C22.8636 22.9456 22.808 22.9687 22.75 22.9688H5.25C5.192 22.9687 5.1364 22.9456 5.09538 22.9046C5.05437 22.8636 5.03131 22.808 5.03125 22.75V10.5C5.03131 10.442 5.05437 10.3864 5.09538 10.3454C5.1364 10.3044 5.192 10.2813 5.25 10.2812H22.75C22.808 10.2813 22.8636 10.3044 22.9046 10.3454C22.9456 10.3864 22.9687 10.442 22.9688 10.5V22.75Z" fill="#BBBBBC"/>
</svg>
