<svg width="18" height="18" viewBox="0 0 18 18" fill="none" xmlns="http://www.w3.org/2000/svg">
<path d="M13.53 10.1625C13.215 10.47 13.035 10.9125 13.08 11.385C13.1475 12.195 13.89 12.7875 14.7 12.7875H16.125V13.68C16.125 15.2325 14.8575 16.5 13.305 16.5H5.73C6.3525 15.9525 6.75 15.15 6.75 14.25C6.75 12.5925 5.4075 11.25 3.75 11.25C3.045 11.25 2.3925 11.4975 1.875 11.91V8.63251C1.875 7.08001 3.1425 5.8125 4.695 5.8125H13.305C14.8575 5.8125 16.125 7.08001 16.125 8.63251V9.71251H14.61C14.19 9.71251 13.8075 9.87749 13.53 10.1625Z" stroke="#2758DD" stroke-linecap="round" stroke-linejoin="round"/>
<path d="M1.875 8.63247V5.87998C1.875 4.98748 2.4225 4.19245 3.255 3.87745L9.21 1.62745C10.14 1.28245 11.1375 1.96497 11.1375 2.96247V5.81246" stroke="#2758DD" stroke-linecap="round" stroke-linejoin="round"/>
<path d="M16.9191 10.4776V12.0227C16.9191 12.4352 16.5891 12.7726 16.1691 12.7876H14.6991C13.8891 12.7876 13.1466 12.1951 13.0791 11.3851C13.0341 10.9126 13.2141 10.4701 13.5291 10.1626C13.8066 9.87763 14.1891 9.71265 14.6091 9.71265H16.1691C16.5891 9.72765 16.9191 10.0651 16.9191 10.4776Z" stroke="#2758DD" stroke-linecap="round" stroke-linejoin="round"/>
<path d="M5.25 9H10.5" stroke="#2758DD" stroke-linecap="round" stroke-linejoin="round"/>
<path d="M6.75 14.25C6.75 15.15 6.3525 15.9525 5.73 16.5C5.1975 16.965 4.5075 17.25 3.75 17.25C2.0925 17.25 0.75 15.9075 0.75 14.25C0.75 13.305 1.185 12.4575 1.875 11.91C2.3925 11.4975 3.045 11.25 3.75 11.25C5.4075 11.25 6.75 12.5925 6.75 14.25Z" stroke="#2758DD" stroke-miterlimit="10" stroke-linecap="round" stroke-linejoin="round"/>
<path d="M3.9375 13.3125V14.4375L3 15" stroke="#2758DD" stroke-miterlimit="10" stroke-linecap="round" stroke-linejoin="round"/>
</svg>
