<svg width="15" height="15" viewBox="0 0 15 15" fill="none" xmlns="http://www.w3.org/2000/svg">
<path d="M13.2803 10.3087C12.6346 11.5865 11.5873 12.628 10.2923 13.2803C9.00658 13.9264 7.54067 14.1446 6.11682 13.9018C4.68855 13.656 3.38001 12.9642 2.38704 11.9297C1.38485 10.8855 0.746762 9.55722 0.564505 8.13572C0.379389 6.71099 0.658218 5.26542 1.36129 4.00481C2.0579 2.75386 3.14649 1.7549 4.46677 1.15501C5.77819 0.560525 7.25197 0.401064 8.6644 0.700837C10.0763 1.00038 11.2333 1.68165 12.1904 2.75882C12.3056 2.87834 12.7514 3.3609 13.1215 4.08922" stroke="white" stroke-linecap="round" stroke-linejoin="round"/>
<path d="M9.71973 4.14823L13.5663 4.82576L14.2463 0.993652" stroke="white" stroke-linecap="round" stroke-linejoin="round"/>
</svg>
