<svg width="28" height="28" viewBox="0 0 28 28" fill="none" xmlns="http://www.w3.org/2000/svg">
<path d="M20.0668 25.6668C23.1596 25.6668 25.6668 23.1596 25.6668 20.0668C25.6668 16.974 23.1596 14.4668 20.0668 14.4668C16.974 14.4668 14.4668 16.974 14.4668 20.0668C14.4668 23.1596 16.974 25.6668 20.0668 25.6668Z" stroke="#BBBBBC" stroke-width="1.5" stroke-miterlimit="10" stroke-linecap="round" stroke-linejoin="round"/>
<path d="M22.1552 20.1367H17.9785" stroke="#BBBBBC" stroke-width="1.5" stroke-miterlimit="10" stroke-linecap="round" stroke-linejoin="round"/>
<path d="M20.0664 18.0952V22.2835" stroke="#BBBBBC" stroke-width="1.5" stroke-miterlimit="10" stroke-linecap="round" stroke-linejoin="round"/>
<path d="M25.6663 10.1384C25.6663 12.4367 25.0713 14.4667 24.138 16.2284C23.1113 15.1434 21.6647 14.4668 20.0664 14.4668C16.9747 14.4668 14.4664 16.9751 14.4664 20.0667C14.4664 21.5017 15.0147 22.8084 15.9013 23.8001C15.4697 23.9984 15.073 24.1617 14.723 24.2784C14.3263 24.4184 13.673 24.4184 13.2763 24.2784C9.89301 23.1234 2.33301 18.3051 2.33301 10.1384C2.33301 6.5334 5.23801 3.6167 8.81967 3.6167C10.9313 3.6167 12.8213 4.64341 13.9997 6.21841C15.178 4.64341 17.068 3.6167 19.1797 3.6167C22.7613 3.6167 25.6663 6.5334 25.6663 10.1384Z" stroke="#BBBBBC" stroke-width="1.5" stroke-linecap="round" stroke-linejoin="round"/>
</svg>
