<svg width="22" height="22" viewBox="0 0 22 22" fill="none" xmlns="http://www.w3.org/2000/svg">
<path d="M10.9995 0.44043C5.16725 0.44043 0.439453 5.16823 0.439453 11.0004C0.439453 16.8326 5.16725 21.5604 10.9995 21.5604C16.8317 21.5604 21.5595 16.8326 21.5595 11.0004C21.5595 5.16823 16.8317 0.44043 10.9995 0.44043ZM8.41445 15.3773H6.27605V8.49573H8.41445V15.3773ZM7.33205 7.65093C6.65665 7.65093 6.21995 7.17243 6.21995 6.58063C6.21995 5.97673 6.66985 5.51253 7.35955 5.51253C8.04925 5.51253 8.47165 5.97673 8.48485 6.58063C8.48485 7.17243 8.04925 7.65093 7.33205 7.65093ZM16.2245 15.3773H14.0861V11.5636C14.0861 10.6759 13.7759 10.0731 13.0026 10.0731C12.4119 10.0731 12.061 10.4812 11.9059 10.8739C11.8487 11.0136 11.8344 11.2116 11.8344 11.4085V15.3762H9.69485V10.6902C9.69485 9.83113 9.66735 9.11283 9.63875 8.49463H11.4967L11.5946 9.45053H11.6375C11.9191 9.00173 12.6088 8.33953 13.7627 8.33953C15.1696 8.33953 16.2245 9.28223 16.2245 11.3084V15.3773Z" fill="#0077B5"/>
</svg>
