<svg width="28" height="28" viewBox="0 0 28 28" fill="none" xmlns="http://www.w3.org/2000/svg">
<path d="M9.33329 25.6667H18.6666C23.3566 25.6667 24.1966 23.7883 24.4416 21.5017L25.3166 12.1683C25.6316 9.32167 24.815 7 19.8333 7H8.16663C3.18496 7 2.36829 9.32167 2.68329 12.1683L3.55829 21.5017C3.80329 23.7883 4.64329 25.6667 9.33329 25.6667Z" stroke="#FFAE28" stroke-width="1.5" stroke-miterlimit="10" stroke-linecap="round" stroke-linejoin="round"/>
<path d="M9.33301 6.99967V6.06634C9.33301 4.00134 9.33301 2.33301 13.0663 2.33301H14.933C18.6663 2.33301 18.6663 4.00134 18.6663 6.06634V6.99967" stroke="#FFAE28" stroke-width="1.5" stroke-miterlimit="10" stroke-linecap="round" stroke-linejoin="round"/>
<path d="M16.3337 15.1667V16.3333C16.3337 16.345 16.3337 16.345 16.3337 16.3567C16.3337 17.6283 16.322 18.6667 14.0003 18.6667C11.6903 18.6667 11.667 17.64 11.667 16.3683V15.1667C11.667 14 11.667 14 12.8337 14H15.167C16.3337 14 16.3337 14 16.3337 15.1667Z" stroke="#FFAE28" stroke-width="1.5" stroke-miterlimit="10" stroke-linecap="round" stroke-linejoin="round"/>
<path d="M25.258 12.833C22.563 14.793 19.483 15.9597 16.333 16.3563" stroke="#FFAE28" stroke-width="1.5" stroke-miterlimit="10" stroke-linecap="round" stroke-linejoin="round"/>
<path d="M3.05664 13.1484C5.68164 14.9451 8.64497 16.0301 11.6666 16.3684" stroke="#FFAE28" stroke-width="1.5" stroke-miterlimit="10" stroke-linecap="round" stroke-linejoin="round"/>
</svg>
