<svg width="18" height="18" viewBox="0 0 18 18" fill="none" xmlns="http://www.w3.org/2000/svg">
<path d="M3.19531 8.26508V11.9926C3.19531 13.3576 3.19531 13.3576 4.48531 14.2276L8.03281 16.2751C8.56531 16.5826 9.43531 16.5826 9.96781 16.2751L13.5153 14.2276C14.8053 13.3576 14.8053 13.3576 14.8053 11.9926V8.26508C14.8053 6.90008 14.8053 6.90008 13.5153 6.03008L9.96781 3.98258C9.43531 3.67508 8.56531 3.67508 8.03281 3.98258L4.48531 6.03008C3.19531 6.90008 3.19531 6.90008 3.19531 8.26508Z" stroke="#2758DD" stroke-linecap="round" stroke-linejoin="round"/>
<path d="M13.125 5.7225V3.75C13.125 2.25 12.375 1.5 10.875 1.5H7.125C5.625 1.5 4.875 2.25 4.875 3.75V5.67" stroke="#2758DD" stroke-linecap="round" stroke-linejoin="round"/>
<path d="M9.47282 8.24247L9.90032 8.90997C9.96782 9.01497 10.1178 9.11997 10.2303 9.14997L10.9953 9.34497C11.4678 9.46497 11.5953 9.86997 11.2878 10.245L10.7853 10.8525C10.7103 10.95 10.6503 11.1225 10.6578 11.2425L10.7028 12.03C10.7328 12.5175 10.3878 12.765 9.93782 12.585L9.20282 12.2925C9.09032 12.2475 8.90282 12.2475 8.79032 12.2925L8.05532 12.585C7.60532 12.765 7.26032 12.51 7.29032 12.03L7.33532 11.2425C7.34282 11.1225 7.28282 10.9425 7.20782 10.8525L6.70532 10.245C6.39782 9.86997 6.52532 9.46497 6.99782 9.34497L7.76282 9.14997C7.88282 9.11997 8.03282 9.00747 8.09282 8.90997L8.52032 8.24247C8.79032 7.83747 9.21032 7.83747 9.47282 8.24247Z" stroke="#2758DD" stroke-linecap="round" stroke-linejoin="round"/>
</svg>
