<svg width="22" height="22" viewBox="0 0 22 22" fill="none" xmlns="http://www.w3.org/2000/svg">
<path d="M8.31835 0.966797C7.9219 0.966812 7.53266 1.07284 7.19097 1.2739C6.84929 1.47496 6.56758 1.76373 6.37504 2.11029L5.70234 3.32074H3.7334C2.93568 3.32074 2.17063 3.63763 1.60655 4.2017C1.04248 4.76578 0.725586 5.53083 0.725586 6.32855V15.2212C0.725586 16.0189 1.04248 16.784 1.60655 17.3481C2.17063 17.9121 2.93568 18.229 3.7334 18.229H9.61616C9.44043 17.8076 9.30793 17.3694 9.22069 16.9213H3.7334C3.28251 16.9213 2.85009 16.7422 2.53127 16.4233C2.21244 16.1045 2.03333 15.6721 2.03333 15.2212V6.32855C2.03333 5.87766 2.21244 5.44524 2.53127 5.12642C2.85009 4.80759 3.28251 4.62848 3.7334 4.62848H6.47182L7.51801 2.74533C7.59731 2.60262 7.71334 2.48371 7.85406 2.40093C7.99478 2.31815 8.15509 2.27451 8.31835 2.27454H11.9643C12.1276 2.27451 12.2879 2.31815 12.4286 2.40093C12.5694 2.48371 12.6854 2.60262 12.7647 2.74533L13.8109 4.62848H16.5493C17.0002 4.62848 17.4326 4.80759 17.7514 5.12642C18.0702 5.44524 18.2494 5.87766 18.2494 6.32855V9.23174C18.7107 9.40175 19.1491 9.62092 19.5571 9.88247V6.32855C19.5571 5.53083 19.2402 4.76578 18.6761 4.2017C18.1121 3.63763 17.347 3.32074 16.5493 3.32074H14.5804L13.9077 2.11029C13.7151 1.76373 13.4334 1.47496 13.0917 1.2739C12.75 1.07284 12.3608 0.966812 11.9643 0.966797H8.31835Z" fill="white"/>
<path d="M10.1413 6.19825C11.0182 6.19823 11.8729 6.47354 12.5849 6.98534C13.2969 7.49713 13.8302 8.21956 14.1096 9.0507C13.6832 9.1663 13.2736 9.32271 12.8855 9.51469C12.7327 9.03274 12.4556 8.59956 12.0821 8.25879C11.7086 7.91802 11.2519 7.68169 10.758 7.5736C10.2641 7.46552 9.75047 7.4895 9.26879 7.64312C8.7871 7.79675 8.35441 8.07459 8.01429 8.44868C7.67416 8.82276 7.43863 9.27986 7.3314 9.77395C7.22417 10.268 7.24904 10.7817 7.4035 11.2631C7.55796 11.7445 7.83655 12.1767 8.21122 12.5162C8.58589 12.8557 9.04341 13.0904 9.53768 13.1968C9.38389 13.6006 9.26724 14.0233 9.19243 14.4601C8.19079 14.2282 7.30953 13.6358 6.71676 12.7958C6.124 11.9558 5.8612 10.9269 5.97851 9.90553C6.09583 8.88413 6.58503 7.94165 7.35281 7.25789C8.1206 6.57413 9.11322 6.19693 10.1413 6.19825Z" fill="white"/>
<path d="M21.6493 15.6134C21.6493 18.7913 19.073 21.3675 15.8952 21.3675C12.7174 21.3675 10.1411 18.7913 10.1411 15.6134C10.1411 12.4356 12.7174 9.85938 15.8952 9.85938C19.073 9.85938 21.6493 12.4356 21.6493 15.6134ZM16.4183 12.4749C16.4183 12.3361 16.3632 12.2031 16.2651 12.105C16.167 12.0069 16.0339 11.9518 15.8952 11.9518C15.7565 11.9518 15.6234 12.0069 15.5253 12.105C15.4272 12.2031 15.3721 12.3361 15.3721 12.4749V15.0904H12.7566C12.6179 15.0904 12.4848 15.1455 12.3867 15.2436C12.2886 15.3417 12.2335 15.4747 12.2335 15.6134C12.2335 15.7522 12.2886 15.8852 12.3867 15.9833C12.4848 16.0814 12.6179 16.1365 12.7566 16.1365H15.3721V18.752C15.3721 18.8908 15.4272 19.0238 15.5253 19.1219C15.6234 19.22 15.7565 19.2751 15.8952 19.2751C16.0339 19.2751 16.167 19.22 16.2651 19.1219C16.3632 19.0238 16.4183 18.8908 16.4183 18.752V16.1365H19.0338C19.1725 16.1365 19.3056 16.0814 19.4037 15.9833C19.5018 15.8852 19.5569 15.7522 19.5569 15.6134C19.5569 15.4747 19.5018 15.3417 19.4037 15.2436C19.3056 15.1455 19.1725 15.0904 19.0338 15.0904H16.4183V12.4749Z" fill="white"/>
</svg>
