<svg width="39" height="39" viewBox="0 0 39 39" fill="none" xmlns="http://www.w3.org/2000/svg">
<path d="M6.5 9.75H3.25V32.5C3.25 33.362 3.59241 34.1886 4.2019 34.7981C4.8114 35.4076 5.63805 35.75 6.5 35.75H29.25V32.5H6.5V9.75Z" fill="white" fill-opacity="0.7"/>
<path d="M16.25 16.25H29.25V19.5H16.25V16.25Z" fill="white" fill-opacity="0.7"/>
<path d="M16.25 21.125H29.25V24.375H16.25V21.125Z" fill="white" fill-opacity="0.7"/>
<path d="M21.8888 8.10864H18.135L16.25 11.3749L18.135 14.6249H21.8888L23.7738 11.3749L21.8888 8.10864Z" fill="white" fill-opacity="0.7"/>
<path d="M32.5 3.25H13C12.138 3.25 11.3114 3.59241 10.7019 4.2019C10.0924 4.8114 9.75 5.63805 9.75 6.5V26C9.75 26.862 10.0924 27.6886 10.7019 28.2981C11.3114 28.9076 12.138 29.25 13 29.25H32.5C33.362 29.25 34.1886 28.9076 34.7981 28.2981C35.4076 27.6886 35.75 26.862 35.75 26V6.5C35.75 5.63805 35.4076 4.8114 34.7981 4.2019C34.1886 3.59241 33.362 3.25 32.5 3.25ZM32.5 26H13V6.5H32.5V26Z" fill="white" fill-opacity="0.7"/>
</svg>
