<svg width="35" height="35" viewBox="0 0 35 35" fill="none" xmlns="http://www.w3.org/2000/svg">
<path d="M19.3464 16.6033C19.0524 16.5343 18.7514 16.4996 18.4494 16.4999H4.79941C3.76507 16.4999 2.77309 16.9108 2.0417 17.6422C1.31031 18.3736 0.899414 19.3656 0.899414 20.3999V23.3249C0.899414 27.3302 4.97101 30.1499 11.6244 30.1499C12.6638 30.1499 13.6407 30.0817 14.5494 29.9491V27.9854C13.668 28.1258 12.693 28.1999 11.6244 28.1999C5.92846 28.1999 2.84941 26.0686 2.84941 23.3249V20.3999C2.84941 19.8827 3.05486 19.3867 3.42056 19.021C3.78625 18.6553 4.28224 18.4499 4.79941 18.4499H18.4494L18.5469 18.4519C18.6834 17.7752 18.9623 17.1473 19.3464 16.6033ZM25.2744 14.5499C26.5673 14.5499 27.8073 14.0363 28.7216 13.122C29.6358 12.2078 30.1494 10.9678 30.1494 9.6749C30.1494 8.38197 29.6358 7.142 28.7216 6.22776C27.8073 5.31352 26.5673 4.7999 25.2744 4.7999C23.9815 4.7999 22.7415 5.31352 21.8273 6.22776C20.913 7.142 20.3994 8.38197 20.3994 9.6749C20.3994 10.9678 20.913 12.2078 21.8273 13.122C22.7415 14.0363 23.9815 14.5499 25.2744 14.5499ZM22.3494 9.6749C22.3494 8.89914 22.6576 8.15516 23.2061 7.60661C23.7547 7.05807 24.4987 6.7499 25.2744 6.7499C26.0502 6.7499 26.7942 7.05807 27.3427 7.60661C27.8912 8.15516 28.1994 8.89914 28.1994 9.6749C28.1994 10.4507 27.8912 11.1946 27.3427 11.7432C26.7942 12.2917 26.0502 12.5999 25.2744 12.5999C24.4987 12.5999 23.7547 12.2917 23.2061 11.7432C22.6576 11.1946 22.3494 10.4507 22.3494 9.6749ZM18.4494 7.7249C18.4494 5.9148 17.7304 4.17883 16.4504 2.8989C15.1705 1.61896 13.4345 0.899902 11.6244 0.899902C9.81431 0.899902 8.07835 1.61896 6.79841 2.8989C5.51847 4.17883 4.79941 5.9148 4.79941 7.7249C4.79941 9.535 5.51847 11.271 6.79841 12.5509C8.07835 13.8308 9.81431 14.5499 11.6244 14.5499C13.4345 14.5499 15.1705 13.8308 16.4504 12.5509C17.7304 11.271 18.4494 9.535 18.4494 7.7249ZM6.74941 7.7249C6.74941 6.43197 7.26303 5.192 8.17727 4.27776C9.09151 3.36352 10.3315 2.8499 11.6244 2.8499C12.9173 2.8499 14.1573 3.36352 15.0716 4.27776C15.9858 5.192 16.4994 6.43197 16.4994 7.7249C16.4994 9.01783 15.9858 10.2578 15.0716 11.172C14.1573 12.0863 12.9173 12.5999 11.6244 12.5999C10.3315 12.5999 9.09151 12.0863 8.17727 11.172C7.26303 10.2578 6.74941 9.01783 6.74941 7.7249ZM20.3994 19.4249V20.3999H19.4244C18.6487 20.3999 17.9047 20.7081 17.3561 21.2566C16.8076 21.8052 16.4994 22.5491 16.4994 23.3249V26.2499H20.3994V25.2749C20.3994 25.0163 20.5021 24.7683 20.685 24.5855C20.8678 24.4026 21.1158 24.2999 21.3744 24.2999C21.633 24.2999 21.881 24.4026 22.0638 24.5855C22.2467 24.7683 22.3494 25.0163 22.3494 25.2749V26.2499H28.1994V25.2749C28.1994 25.0163 28.3021 24.7683 28.485 24.5855C28.6678 24.4026 28.9158 24.2999 29.1744 24.2999C29.433 24.2999 29.681 24.4026 29.8638 24.5855C30.0467 24.7683 30.1494 25.0163 30.1494 25.2749V26.2499H34.0494V23.3249C34.0494 22.5491 33.7412 21.8052 33.1927 21.2566C32.6442 20.7081 31.9002 20.3999 31.1244 20.3999H30.1494V19.4249C30.1494 18.6491 29.8412 17.9052 29.2927 17.3566C28.7442 16.8081 28.0002 16.4999 27.2244 16.4999H23.3244C22.5487 16.4999 21.8047 16.8081 21.2561 17.3566C20.7076 17.9052 20.3994 18.6491 20.3994 19.4249ZM23.3244 18.4499H27.2244C27.483 18.4499 27.731 18.5526 27.9138 18.7355C28.0967 18.9183 28.1994 19.1663 28.1994 19.4249V20.3999H22.3494V19.4249C22.3494 19.1663 22.4521 18.9183 22.635 18.7355C22.8178 18.5526 23.0658 18.4499 23.3244 18.4499ZM34.0494 28.1999H30.1494V29.1749C30.1494 29.4335 30.0467 29.6815 29.8638 29.8643C29.681 30.0472 29.433 30.1499 29.1744 30.1499C28.9158 30.1499 28.6678 30.0472 28.485 29.8643C28.3021 29.6815 28.1994 29.4335 28.1994 29.1749V28.1999H22.3494V29.1749C22.3494 29.4335 22.2467 29.6815 22.0638 29.8643C21.881 30.0472 21.633 30.1499 21.3744 30.1499C21.1158 30.1499 20.8678 30.0472 20.685 29.8643C20.5021 29.6815 20.3994 29.4335 20.3994 29.1749V28.1999H16.4994V31.1249C16.4994 31.9007 16.8076 32.6446 17.3561 33.1932C17.9047 33.7417 18.6487 34.0499 19.4244 34.0499H31.1244C31.9002 34.0499 32.6442 33.7417 33.1927 33.1932C33.7412 32.6446 34.0494 31.9007 34.0494 31.1249V28.1999Z" fill="white" fill-opacity="0.7"/>
</svg>
