<svg width="54" height="54" viewBox="0 0 54 54" fill="none" xmlns="http://www.w3.org/2000/svg">
<path d="M11.25 11.25H15.75V18H38.25V11.25H42.75V22.5H47.25V6.75H33.345C32.4 4.14 29.925 2.25 27 2.25C24.075 2.25 21.6 4.14 20.655 6.75H6.75V47.25H22.5V42.75H11.25V11.25ZM27 6.75C28.2375 6.75 29.25 7.7625 29.25 9C29.25 10.2375 28.2375 11.25 27 11.25C25.7625 11.25 24.75 10.2375 24.75 9C24.75 7.7625 25.7625 6.75 27 6.75Z" fill="#2758DD"/>
<path d="M45.675 42.525C46.575 40.95 47.25 39.15 47.25 37.125C47.25 31.5 42.75 27 37.125 27C31.5 27 27 31.5 27 37.125C27 42.75 31.5 47.25 37.125 47.25C39.15 47.25 40.95 46.575 42.525 45.675L48.6 51.75L51.75 48.6L45.675 42.525V42.525ZM37.125 42.75C33.975 42.75 31.5 40.275 31.5 37.125C31.5 33.975 33.975 31.5 37.125 31.5C40.275 31.5 42.75 33.975 42.75 37.125C42.75 40.275 40.275 42.75 37.125 42.75Z" fill="#2758DD"/>
</svg>
