<svg width="33" height="35" viewBox="0 0 33 35" fill="none" xmlns="http://www.w3.org/2000/svg">
<path d="M14.4996 0.899902C12.4309 0.899902 10.447 1.72169 8.98418 3.18447C7.52139 4.64725 6.69961 6.63121 6.69961 8.6999C6.69961 10.7686 7.52139 12.7526 8.98418 14.2153C10.447 15.6781 12.4309 16.4999 14.4996 16.4999C16.5683 16.4999 18.5523 15.6781 20.015 14.2153C21.4778 12.7526 22.2996 10.7686 22.2996 8.6999C22.2996 6.63121 21.4778 4.64725 20.015 3.18447C18.5523 1.72169 16.5683 0.899902 14.4996 0.899902ZM8.64961 8.6999C8.64961 7.14839 9.26595 5.66042 10.363 4.56333C11.4601 3.46624 12.9481 2.8499 14.4996 2.8499C16.0511 2.8499 17.5391 3.46624 18.6362 4.56333C19.7333 5.66042 20.3496 7.14839 20.3496 8.6999C20.3496 10.2514 19.7333 11.7394 18.6362 12.8365C17.5391 13.9336 16.0511 14.5499 14.4996 14.5499C12.9481 14.5499 11.4601 13.9336 10.363 12.8365C9.26595 11.7394 8.64961 10.2514 8.64961 8.6999ZM4.76716 18.4499C4.2536 18.4478 3.74469 18.5472 3.26961 18.7422C2.79453 18.9373 2.36262 19.2242 1.99866 19.5865C1.63471 19.9489 1.34585 20.3795 1.14867 20.8537C0.951493 21.3279 0.849862 21.8363 0.849609 22.3499C0.849609 25.6474 2.47396 28.1336 5.01286 29.7541C7.06036 31.0586 9.68896 31.7996 12.5594 32.0258C12.5789 31.8269 12.6101 31.6261 12.6608 31.4233L12.9923 30.1012C10.2369 29.9198 7.83256 29.2393 6.06196 28.1083C4.01446 26.8018 2.79961 24.9044 2.79961 22.3499C2.79961 21.2716 3.67321 20.3999 4.76716 20.3999H20.2385L22.1885 18.4499H4.76716ZM16.4087 26.9851L25.8272 17.5666C26.5114 16.8826 27.4393 16.4984 28.4067 16.4986C29.3742 16.4988 30.3019 16.8833 30.9859 17.5675C31.6698 18.2517 32.054 19.1796 32.0538 20.1471C32.0536 21.1145 31.6691 22.0423 30.9849 22.7263L21.5664 32.1428C21.0177 32.6917 20.3303 33.0813 19.5774 33.2699L16.6563 33.9992C16.3659 34.0716 16.0616 34.0676 15.7731 33.9877C15.4847 33.9077 15.2218 33.7545 15.01 33.543C14.7983 33.3314 14.6448 33.0686 14.5646 32.7803C14.4844 32.4919 14.4801 32.1876 14.5523 31.8971L15.2835 28.976C15.4707 28.2233 15.8607 27.533 16.4106 26.987L16.4087 26.9851Z" fill="white" fill-opacity="0.7"/>
</svg>
