<svg width="47" height="47" viewBox="0 0 47 47" fill="none" xmlns="http://www.w3.org/2000/svg">
<path d="M25.9414 22.143C25.5343 22.0475 25.1175 21.9995 24.6994 21.9999H5.79941C4.36724 21.9999 2.99373 22.5688 1.98104 23.5815C0.968341 24.5942 0.399414 25.9677 0.399414 27.3999V31.4499C0.399414 36.9957 6.03701 40.8999 15.2494 40.8999C16.6885 40.8999 18.0412 40.8054 19.2994 40.6218V37.9029C18.079 38.0973 16.729 38.1999 15.2494 38.1999C7.36271 38.1999 3.09941 35.2488 3.09941 31.4499V27.3999C3.09941 26.6838 3.38388 25.9971 3.89023 25.4907C4.39657 24.9844 5.08333 24.6999 5.79941 24.6999H24.6994L24.8344 24.7026C25.0234 23.7657 25.4095 22.8963 25.9414 22.143ZM34.1494 19.2999C35.9396 19.2999 37.6565 18.5887 38.9224 17.3229C40.1882 16.057 40.8994 14.3401 40.8994 12.5499C40.8994 10.7597 40.1882 9.0428 38.9224 7.77693C37.6565 6.51106 35.9396 5.7999 34.1494 5.7999C32.3592 5.7999 30.6423 6.51106 29.3764 7.77693C28.1106 9.0428 27.3994 10.7597 27.3994 12.5499C27.3994 14.3401 28.1106 16.057 29.3764 17.3229C30.6423 18.5887 32.3592 19.2999 34.1494 19.2999ZM30.0994 12.5499C30.0994 11.4758 30.5261 10.4456 31.2856 9.68612C32.0451 8.9266 33.0753 8.4999 34.1494 8.4999C35.2235 8.4999 36.2537 8.9266 37.0132 9.68612C37.7727 10.4456 38.1994 11.4758 38.1994 12.5499C38.1994 13.624 37.7727 14.6542 37.0132 15.4137C36.2537 16.1732 35.2235 16.5999 34.1494 16.5999C33.0753 16.5999 32.0451 16.1732 31.2856 15.4137C30.5261 14.6542 30.0994 13.624 30.0994 12.5499ZM24.6994 9.8499C24.6994 7.34361 23.7038 4.93996 21.9316 3.16774C20.1594 1.39552 17.7557 0.399902 15.2494 0.399902C12.7431 0.399902 10.3395 1.39552 8.56725 3.16774C6.79504 4.93996 5.79941 7.34361 5.79941 9.8499C5.79941 12.3562 6.79504 14.7598 8.56725 16.5321C10.3395 18.3043 12.7431 19.2999 15.2494 19.2999C17.7557 19.2999 20.1594 18.3043 21.9316 16.5321C23.7038 14.7598 24.6994 12.3562 24.6994 9.8499ZM8.49941 9.8499C8.49941 8.05969 9.21057 6.3428 10.4764 5.07693C11.7423 3.81106 13.4592 3.0999 15.2494 3.0999C17.0396 3.0999 18.7565 3.81106 20.0224 5.07693C21.2883 6.3428 21.9994 8.05969 21.9994 9.8499C21.9994 11.6401 21.2883 13.357 20.0224 14.6229C18.7565 15.8887 17.0396 16.5999 15.2494 16.5999C13.4592 16.5999 11.7423 15.8887 10.4764 14.6229C9.21057 13.357 8.49941 11.6401 8.49941 9.8499ZM27.3994 26.0499V27.3999H26.0494C24.9753 27.3999 23.9452 27.8266 23.1856 28.5861C22.4261 29.3456 21.9994 30.3758 21.9994 31.4499V35.4999H27.3994V34.1499C27.3994 33.7919 27.5416 33.4485 27.7948 33.1953C28.048 32.9421 28.3914 32.7999 28.7494 32.7999C29.1075 32.7999 29.4508 32.9421 29.704 33.1953C29.9572 33.4485 30.0994 33.7919 30.0994 34.1499V35.4999H38.1994V34.1499C38.1994 33.7919 38.3416 33.4485 38.5948 33.1953C38.848 32.9421 39.1914 32.7999 39.5494 32.7999C39.9075 32.7999 40.2508 32.9421 40.504 33.1953C40.7572 33.4485 40.8994 33.7919 40.8994 34.1499V35.4999H46.2994V31.4499C46.2994 30.3758 45.8727 29.3456 45.1132 28.5861C44.3537 27.8266 43.3235 27.3999 42.2494 27.3999H40.8994V26.0499C40.8994 24.9758 40.4727 23.9456 39.7132 23.1861C38.9537 22.4266 37.9235 21.9999 36.8494 21.9999H31.4494C30.3753 21.9999 29.3451 22.4266 28.5856 23.1861C27.8261 23.9456 27.3994 24.9758 27.3994 26.0499ZM31.4494 24.6999H36.8494C37.2075 24.6999 37.5508 24.8421 37.804 25.0953C38.0572 25.3485 38.1994 25.6919 38.1994 26.0499V27.3999H30.0994V26.0499C30.0994 25.6919 30.2416 25.3485 30.4948 25.0953C30.748 24.8421 31.0914 24.6999 31.4494 24.6999ZM46.2994 38.1999H40.8994V39.5499C40.8994 39.9079 40.7572 40.2513 40.504 40.5045C40.2508 40.7577 39.9075 40.8999 39.5494 40.8999C39.1914 40.8999 38.848 40.7577 38.5948 40.5045C38.3416 40.2513 38.1994 39.9079 38.1994 39.5499V38.1999H30.0994V39.5499C30.0994 39.9079 29.9572 40.2513 29.704 40.5045C29.4508 40.7577 29.1075 40.8999 28.7494 40.8999C28.3914 40.8999 28.048 40.7577 27.7948 40.5045C27.5416 40.2513 27.3994 39.9079 27.3994 39.5499V38.1999H21.9994V42.2499C21.9994 43.324 22.4261 44.3542 23.1856 45.1137C23.9452 45.8732 24.9753 46.2999 26.0494 46.2999H42.2494C43.3235 46.2999 44.3537 45.8732 45.1132 45.1137C45.8727 44.3542 46.2994 43.324 46.2994 42.2499V38.1999Z" fill="#2758DD"/>
</svg>
