<svg width="39" height="39" viewBox="0 0 39 39" fill="none" xmlns="http://www.w3.org/2000/svg">
<path d="M8.125 8.125H11.375V13H27.625V8.125H30.875V16.25H34.125V4.875H24.0825C23.4 2.99 21.6125 1.625 19.5 1.625C17.3875 1.625 15.6 2.99 14.9175 4.875H4.875V34.125H16.25V30.875H8.125V8.125ZM19.5 4.875C20.3938 4.875 21.125 5.60625 21.125 6.5C21.125 7.39375 20.3938 8.125 19.5 8.125C18.6062 8.125 17.875 7.39375 17.875 6.5C17.875 5.60625 18.6062 4.875 19.5 4.875Z" fill="white" fill-opacity="0.7"/>
<path d="M32.9875 30.7125C33.6375 29.575 34.125 28.275 34.125 26.8125C34.125 22.75 30.875 19.5 26.8125 19.5C22.75 19.5 19.5 22.75 19.5 26.8125C19.5 30.875 22.75 34.125 26.8125 34.125C28.275 34.125 29.575 33.6375 30.7125 32.9875L35.1 37.375L37.375 35.1L32.9875 30.7125V30.7125ZM26.8125 30.875C24.5375 30.875 22.75 29.0875 22.75 26.8125C22.75 24.5375 24.5375 22.75 26.8125 22.75C29.0875 22.75 30.875 24.5375 30.875 26.8125C30.875 29.0875 29.0875 30.875 26.8125 30.875Z" fill="white" fill-opacity="0.7"/>
</svg>
