<svg width="54" height="54" viewBox="0 0 54 54" fill="none" xmlns="http://www.w3.org/2000/svg">
<path d="M9 13.5H4.5V45C4.5 46.1935 4.97411 47.3381 5.81802 48.182C6.66193 49.0259 7.80652 49.5 9 49.5H40.5V45H9V13.5Z" fill="#2758DD"/>
<path d="M22.5 22.5H40.5V27H22.5V22.5Z" fill="#2758DD"/>
<path d="M22.5 29.25H40.5V33.75H22.5V29.25Z" fill="#2758DD"/>
<path d="M30.3075 11.2275H25.11L22.5 15.75L25.11 20.25H30.3075L32.9175 15.75L30.3075 11.2275Z" fill="#2758DD"/>
<path d="M45 4.5H18C16.8065 4.5 15.6619 4.97411 14.818 5.81802C13.9741 6.66193 13.5 7.80653 13.5 9V36C13.5 37.1935 13.9741 38.3381 14.818 39.182C15.6619 40.0259 16.8065 40.5 18 40.5H45C46.1935 40.5 47.3381 40.0259 48.182 39.182C49.0259 38.3381 49.5 37.1935 49.5 36V9C49.5 7.80653 49.0259 6.66193 48.182 5.81802C47.3381 4.97411 46.1935 4.5 45 4.5ZM45 36H18V9H45V36Z" fill="#2758DD"/>
</svg>
