<svg width="44" height="47" viewBox="0 0 44 47" fill="none" xmlns="http://www.w3.org/2000/svg">
<path d="M18.9996 0.399902C16.1353 0.399902 13.3882 1.53776 11.3629 3.56315C9.33746 5.58854 8.19961 8.33556 8.19961 11.1999C8.19961 14.0642 9.33746 16.8113 11.3629 18.8367C13.3882 20.862 16.1353 21.9999 18.9996 21.9999C21.8639 21.9999 24.611 20.862 26.6364 18.8367C28.6618 16.8113 29.7996 14.0642 29.7996 11.1999C29.7996 8.33556 28.6618 5.58854 26.6364 3.56315C24.611 1.53776 21.8639 0.399902 18.9996 0.399902ZM10.8996 11.1999C10.8996 9.05165 11.753 6.99138 13.272 5.47234C14.7911 3.95329 16.8514 3.0999 18.9996 3.0999C21.1479 3.0999 23.2081 3.95329 24.7272 5.47234C26.2462 6.99138 27.0996 9.05165 27.0996 11.1999C27.0996 13.3482 26.2462 15.4084 24.7272 16.9275C23.2081 18.4465 21.1479 19.2999 18.9996 19.2999C16.8514 19.2999 14.7911 18.4465 13.272 16.9275C11.753 15.4084 10.8996 13.3482 10.8996 11.1999ZM5.52391 24.6999C4.81283 24.6971 4.10818 24.8346 3.45038 25.1047C2.79257 25.3748 2.19455 25.772 1.69061 26.2737C1.18667 26.7754 0.786718 27.3716 0.513698 28.0282C0.240679 28.6848 0.0999591 29.3888 0.0996094 30.0999C0.0996094 34.6656 2.34871 38.1081 5.86411 40.3518C8.69911 42.1581 12.3387 43.1841 16.3131 43.4973C16.3401 43.2219 16.3833 42.9438 16.4535 42.663L16.9125 40.8324C13.0974 40.5813 9.76831 39.639 7.31671 38.073C4.48171 36.264 2.79961 33.6369 2.79961 30.0999C2.79961 28.6068 4.00921 27.3999 5.52391 27.3999H26.9457L29.6457 24.6999H5.52391ZM21.6429 36.5178L34.6839 23.4768C35.6313 22.5298 36.9161 21.9979 38.2556 21.9981C39.5952 21.9984 40.8797 22.5308 41.8268 23.4781C42.7738 24.4255 43.3057 25.7103 43.3054 27.0499C43.3052 28.3894 42.7728 29.674 41.8254 30.621L28.7844 43.6593C28.0247 44.4194 27.0728 44.9588 26.0304 45.2199L21.9858 46.2297C21.5836 46.3299 21.1624 46.3244 20.763 46.2137C20.3636 46.103 19.9996 45.8909 19.7063 45.598C19.4131 45.305 19.2007 44.9412 19.0896 44.5419C18.9785 44.1426 18.9727 43.7214 19.0725 43.3191L20.085 39.2745C20.3442 38.2323 20.8842 37.2765 21.6456 36.5205L21.6429 36.5178Z" fill="#2758DD"/>
</svg>
