<svg width="40" height="40" viewBox="0 0 40 40" fill="none" xmlns="http://www.w3.org/2000/svg">
<path d="M16.6667 19.9998C20.3486 19.9998 23.3333 17.0151 23.3333 13.3332C23.3333 9.65127 20.3486 6.6665 16.6667 6.6665C12.9848 6.6665 10 9.65127 10 13.3332C10 17.0151 12.9848 19.9998 16.6667 19.9998Z" fill="white"/>
<path d="M17.2497 23.35C12.6997 23.1833 3.33301 25.45 3.33301 30V33.3333H19.233C15.1163 28.7333 17.183 23.5167 17.2497 23.35ZM32.383 30.0333C32.983 29.05 33.333 27.9 33.333 26.6667C33.333 22.9833 30.3497 20 26.6663 20C22.983 20 19.9997 22.9833 19.9997 26.6667C19.9997 30.35 22.983 33.3333 26.6663 33.3333C27.8997 33.3333 29.0497 32.9667 30.033 32.3833L34.3163 36.6667L36.6663 34.3167L32.383 30.0333ZM26.6663 30C24.833 30 23.333 28.5 23.333 26.6667C23.333 24.8333 24.833 23.3333 26.6663 23.3333C28.4997 23.3333 29.9997 24.8333 29.9997 26.6667C29.9997 28.5 28.4997 30 26.6663 30Z" fill="white"/>
</svg>
