<svg width="18" height="18" viewBox="0 0 18 18" fill="none" xmlns="http://www.w3.org/2000/svg">
<path d="M12.9151 1.5H6.72016C6.42016 1.5 6.13514 1.605 5.90264 1.785L4.26014 3.0975C3.60014 3.6225 3.60014 4.61999 4.26014 5.14499L5.90264 6.45749C6.13514 6.64499 6.42766 6.74249 6.72016 6.74249H12.9151C13.6426 6.74249 14.2276 6.15749 14.2276 5.42999V2.80499C14.2276 2.08499 13.6426 1.5 12.9151 1.5Z" stroke="#2758DD" stroke-linecap="round" stroke-linejoin="round"/>
<path d="M5.09979 9H11.2948C11.5948 9 11.8798 9.105 12.1123 9.285L13.7548 10.5975C14.4148 11.1225 14.4148 12.12 13.7548 12.645L12.1123 13.9575C11.8798 14.145 11.5873 14.2425 11.2948 14.2425H5.09979C4.37229 14.2425 3.78729 13.6575 3.78729 12.93V10.305C3.78729 9.58499 4.37229 9 5.09979 9Z" stroke="#2758DD" stroke-linecap="round" stroke-linejoin="round"/>
<path d="M9 9V6.75" stroke="#2758DD" stroke-linecap="round" stroke-linejoin="round"/>
<path d="M9 16.5V14.25" stroke="#2758DD" stroke-linecap="round" stroke-linejoin="round"/>
<path d="M6.75 16.5H11.25" stroke="#2758DD" stroke-linecap="round" stroke-linejoin="round"/>
</svg>
