<svg width="18" height="18" viewBox="0 0 18 18" fill="none" xmlns="http://www.w3.org/2000/svg">
<path d="M12.675 12.675C14.7 10.65 14.7 7.275 12.675 5.25" stroke="#2758DD" stroke-miterlimit="10" stroke-linecap="round" stroke-linejoin="round"/>
<path d="M5.32495 5.3252C3.29995 7.3502 3.29995 10.7252 5.32495 12.7502" stroke="#2758DD" stroke-miterlimit="10" stroke-linecap="round" stroke-linejoin="round"/>
<path d="M7.27495 10.1996C7.27495 10.8746 7.79995 11.3996 8.47495 11.3996H9.74995C10.2749 11.3996 10.7999 10.9496 10.7999 10.3496C10.7999 9.67461 10.4999 9.44961 10.1249 9.29961L8.02495 8.54961C7.49995 8.47461 7.27495 8.24961 7.27495 7.64961C7.27495 7.04961 7.72495 6.59961 8.32495 6.59961H9.67495C10.3499 6.59961 10.8749 7.12461 10.8749 7.79961" stroke="#2758DD" stroke-linecap="round" stroke-linejoin="round"/>
<path d="M9 5.84961V12.1496" stroke="#2758DD" stroke-linecap="round" stroke-linejoin="round"/>
<path d="M9 16.5C13.1421 16.5 16.5 13.1421 16.5 9C16.5 4.85786 13.1421 1.5 9 1.5C4.85786 1.5 1.5 4.85786 1.5 9C1.5 13.1421 4.85786 16.5 9 16.5Z" stroke="#2758DD" stroke-miterlimit="10" stroke-linecap="round" stroke-linejoin="round"/>
</svg>
