<svg width="39" height="39" viewBox="0 0 39 39" fill="none" xmlns="http://www.w3.org/2000/svg">
<rect opacity="0.25" x="0.5" y="0.5" width="38" height="38" rx="19" stroke="white"/>
<path d="M28.25 18.2826C28.2871 17.2091 28.0523 16.1436 27.5675 15.1851C27.2386 14.7918 26.7821 14.5264 26.2775 14.4351C24.1907 14.2458 22.0952 14.1681 20 14.2026C17.9125 14.1666 15.8246 14.2417 13.745 14.4276C13.3339 14.5024 12.9534 14.6952 12.65 14.9826C11.975 15.6051 11.9 16.6701 11.825 17.5701C11.7162 19.1883 11.7162 20.8119 11.825 22.4301C11.8467 22.9367 11.9221 23.4395 12.05 23.9301C12.1405 24.3089 12.3234 24.6594 12.5825 24.9501C12.888 25.2527 13.2773 25.4565 13.7 25.5351C15.317 25.7347 16.9462 25.8174 18.575 25.7826C21.2 25.8201 23.5025 25.7826 26.225 25.5726C26.6581 25.4988 27.0584 25.2948 27.3725 24.9876C27.5825 24.7775 27.7393 24.5204 27.83 24.2376C28.0982 23.4146 28.23 22.5532 28.22 21.6876C28.25 21.2676 28.25 18.7326 28.25 18.2826ZM18.305 22.1376V17.4951L22.745 19.8276C21.5 20.5176 19.8575 21.2976 18.305 22.1376Z" fill="white"/>
</svg>
