<svg width="164" height="87" viewBox="0 0 164 87" fill="none" xmlns="http://www.w3.org/2000/svg">
<g clip-path="url(#clip0)">
<path d="M9.5982 76.9917V84.7756H8.92373L4.04679 78.4744V84.7756H3.21667V76.9917H3.89114L8.81996 83.293V76.9917H9.5982Z" fill="white"/>
<path d="M18.522 81.1752V84.776H17.7956V83.8758C17.4324 84.4582 16.758 84.8289 15.8241 84.8289C14.527 84.8289 13.7488 84.1405 13.7488 83.1344C13.7488 82.2343 14.3195 81.4929 15.9797 81.4929H17.7956V81.1223C17.7956 80.1162 17.2249 79.5867 16.1872 79.5867C15.4609 79.5867 14.7345 79.8514 14.2676 80.275L13.9044 79.6926C14.4751 79.216 15.3571 78.8983 16.2391 78.8983C17.6918 78.8983 18.522 79.6396 18.522 81.1752ZM15.1496 78.0511H14.4232L15.8241 76.6743H16.6023L18.0031 78.0511H17.2768L16.1872 77.1509L15.1496 78.0511ZM17.7437 83.0285V82.0754H15.9278C14.8383 82.0754 14.4751 82.499 14.4751 83.1344C14.4751 83.8228 14.994 84.2464 15.9278 84.2464C16.8098 84.2464 17.4324 83.8228 17.7437 83.0285Z" fill="white"/>
<path d="M28.1721 81.3867V84.7756H27.3939V81.4396C27.3939 80.2217 26.7713 79.5863 25.6818 79.5863C24.4366 79.5863 23.6584 80.3806 23.6584 81.7044V84.7756H22.8801V78.9509H23.6065V80.0099C24.0215 79.3216 24.7998 78.8979 25.7855 78.8979C27.2382 78.8979 28.1721 79.6922 28.1721 81.3867Z" fill="white"/>
<path d="M37.8741 78.9509V84.0872C37.8741 86.0994 36.8883 86.9996 35.0205 86.9996C33.9829 86.9996 32.9452 86.6819 32.3745 86.0994L32.7896 85.5169C33.3084 85.9935 34.1385 86.3112 35.0205 86.3112C36.4732 86.3112 37.1477 85.6228 37.1477 84.1931V83.4518C36.6808 84.1931 35.8506 84.5638 34.9168 84.5638C33.3084 84.5638 32.0632 83.3989 32.0632 81.7044C32.0632 80.0099 33.3084 78.8979 34.9168 78.8979C35.8506 78.8979 36.6808 79.3216 37.1996 80.0629V78.9509H37.8741ZM37.1477 81.7044C37.1477 80.4336 36.2138 79.5863 34.9686 79.5863C33.7235 79.5863 32.7896 80.4336 32.7896 81.7044C32.7896 82.9752 33.6716 83.8754 34.9686 83.8754C36.2657 83.8754 37.1477 82.9752 37.1477 81.7044Z" fill="white"/>
<path d="M50.4815 84.458C50.1702 84.7228 49.7033 84.8816 49.2882 84.8816C48.1987 84.8816 47.628 84.2462 47.628 83.1872V79.6394H46.5903V78.951H47.628V77.6802H48.4062V78.951H50.1702V79.6394H48.4062V83.1342C48.4062 83.8226 48.7694 84.1933 49.392 84.1933C49.7033 84.1933 50.0146 84.0874 50.2221 83.8755L50.4815 84.458Z" fill="white"/>
<path d="M58.4713 81.1751V84.7758H57.7449V83.8756C57.3818 84.4581 56.7073 84.8288 55.7734 84.8288C54.4764 84.8288 53.6981 84.1404 53.6981 83.1343C53.6981 82.2341 54.2688 81.4928 55.9291 81.4928H57.7449V81.1221C57.7449 80.116 57.1742 79.5865 56.1366 79.5865C55.4102 79.5865 54.6839 79.8513 54.2169 80.2749L53.8538 79.6924C54.4245 79.2159 55.3065 78.8981 56.1885 78.8981C57.6412 78.8981 58.4713 79.6395 58.4713 81.1751ZM55.1508 78.0509H54.4245L55.8253 76.9919H56.6035L58.0044 78.0509H57.278L56.2404 77.4155L55.1508 78.0509ZM57.6931 83.0284V82.0753H55.8772C54.7876 82.0753 54.4245 82.4989 54.4245 83.1343C54.4245 83.8227 54.9433 84.2463 55.8772 84.2463C56.7592 84.2463 57.4336 83.8227 57.6931 83.0284ZM57.8487 77.0978L56.2922 75.8799H57.2261L58.5232 77.0978H57.8487Z" fill="white"/>
<path d="M72.3239 81.3867V84.7756H71.5457V81.4396C71.5457 80.2217 70.9231 79.5863 69.8855 79.5863C68.6922 79.5863 67.9658 80.3806 67.9658 81.7044V84.7756H67.1876V81.4396C67.1876 80.2217 66.565 79.5863 65.5273 79.5863C64.3859 79.5863 63.6077 80.3806 63.6077 81.7044V84.7756H62.8295V78.9509H63.5558V80.0099C63.9709 79.3216 64.6972 78.8979 65.683 78.8979C66.6169 78.8979 67.3951 79.3216 67.7064 80.1158C68.1215 79.3745 68.9516 78.8979 69.9892 78.8979C71.39 78.8979 72.3239 79.6922 72.3239 81.3867Z" fill="white"/>
<path d="M87.1623 78.9509V84.0872C87.1623 86.0994 86.1765 86.9996 84.3087 86.9996C83.2711 86.9996 82.2334 86.6819 81.6627 86.0994L82.0778 85.5169C82.5966 85.9935 83.4267 86.3112 84.3087 86.3112C85.7614 86.3112 86.4359 85.6228 86.4359 84.1931V83.4518C85.969 84.1931 85.1389 84.5638 84.205 84.5638C82.5966 84.5638 81.3514 83.3989 81.3514 81.7044C81.3514 80.0099 82.5966 78.8979 84.205 78.8979C85.1389 78.8979 85.969 79.3216 86.4878 80.0629V78.9509H87.1623ZM86.384 81.7044C86.384 80.4336 85.4501 79.5863 84.205 79.5863C82.9598 79.5863 82.0259 80.4336 82.0259 81.7044C82.0259 82.9752 82.9079 83.8754 84.205 83.8754C85.502 83.8754 86.384 82.9752 86.384 81.7044Z" fill="white"/>
<path d="M91.4166 77.0979C91.4166 76.7802 91.676 76.5684 91.9873 76.5684C92.2986 76.5684 92.558 76.8331 92.558 77.0979C92.558 77.4156 92.2986 77.6803 91.9873 77.6803C91.676 77.6803 91.4166 77.4156 91.4166 77.0979ZM91.5723 78.9512H92.3505V84.7759H91.5723V78.9512Z" fill="white"/>
<path d="M101.119 81.1752V84.776H100.392V83.8758C100.029 84.4582 99.3546 84.8289 98.4207 84.8289C97.1237 84.8289 96.3455 84.1405 96.3455 83.1344C96.3455 82.2343 96.9162 81.4929 98.5764 81.4929H100.392V81.1223C100.392 80.1162 99.8216 79.5867 98.7839 79.5867C98.0576 79.5867 97.3312 79.8514 96.8643 80.275L96.5011 79.6926C97.0718 79.216 97.9538 78.8983 98.8358 78.8983C100.289 78.8983 101.119 79.6396 101.119 81.1752ZM100.34 83.0285V82.0754H98.5245C97.435 82.0754 97.0718 82.499 97.0718 83.1344C97.0718 83.8228 97.5906 84.2464 98.5245 84.2464C99.4065 84.2464 100.029 83.8228 100.34 83.0285ZM98.8877 78.0511H98.1095L99.614 76.6743H100.652L98.8877 78.0511Z" fill="white"/>
<path d="M113.674 84.458C113.363 84.7228 112.896 84.8816 112.481 84.8816C111.391 84.8816 110.821 84.2462 110.821 83.1872V79.6394H109.783V78.951H110.821V77.6802H111.599V78.951H113.363V79.6394H111.547V83.1342C111.547 83.8226 111.91 84.1933 112.533 84.1933C112.844 84.1933 113.155 84.0874 113.363 83.8755L113.674 84.458Z" fill="white"/>
<path d="M120.211 78.8979V79.6393C120.159 79.6393 120.056 79.6393 120.004 79.6393C118.81 79.6393 118.084 80.4336 118.084 81.8103V84.7756H117.306V78.9509H118.032V80.1158C118.447 79.3216 119.174 78.8979 120.211 78.8979Z" fill="white"/>
<path d="M123.739 77.0979C123.739 76.7802 123.999 76.5684 124.31 76.5684C124.621 76.5684 124.881 76.8331 124.881 77.0979C124.881 77.4156 124.621 77.6803 124.31 77.6803C123.947 77.6803 123.739 77.4156 123.739 77.0979ZM123.791 86.4174C123.791 86.1526 123.999 85.9408 124.258 85.9408C124.517 85.9408 124.725 86.1526 124.725 86.4174C124.725 86.6822 124.517 86.894 124.258 86.894C123.999 86.894 123.791 86.6822 123.791 86.4174ZM123.895 78.9512H124.673V84.7759H123.895V78.9512Z" fill="white"/>
<path d="M140.757 76.9917L137.384 84.7756H136.606L133.234 76.9917H134.116L137.021 83.7695L139.978 76.9917H140.757Z" fill="white"/>
<path d="M143.766 77.0979C143.766 76.7802 144.025 76.5684 144.337 76.5684C144.648 76.5684 144.907 76.8331 144.907 77.0979C144.907 77.4156 144.648 77.6803 144.337 77.6803C143.973 77.6803 143.766 77.4156 143.766 77.0979ZM143.922 78.9512H144.7V84.7759H143.922V78.9512Z" fill="white"/>
<path d="M154.09 82.1284H149.317C149.421 83.3463 150.303 84.1405 151.548 84.1405C152.223 84.1405 152.845 83.8758 153.312 83.3992L153.727 83.9287C153.208 84.5641 152.43 84.8819 151.496 84.8819C149.732 84.8819 148.487 83.611 148.487 81.9166C148.487 80.2221 149.68 78.9512 151.289 78.9512C152.897 78.9512 154.09 80.1691 154.09 81.9166C154.142 81.9166 154.09 82.0225 154.09 82.1284ZM149.317 81.4929H153.364C153.26 80.328 152.43 79.5337 151.341 79.5337C150.251 79.5867 149.421 80.3809 149.317 81.4929ZM150.251 78.0511H149.525L150.926 76.6743H151.704L153.105 78.0511H152.378L151.289 77.1509L150.251 78.0511ZM151.808 86.4175C151.808 86.6822 151.6 86.894 151.341 86.894C151.081 86.894 150.874 86.6822 150.874 86.4175C150.874 86.1527 151.081 85.9409 151.341 85.9409C151.6 85.9409 151.808 86.1527 151.808 86.4175Z" fill="white"/>
<path d="M160.991 84.458C160.679 84.7228 160.213 84.8816 159.797 84.8816C158.708 84.8816 158.137 84.2462 158.137 83.1872V79.6394H157.1V78.951H158.137V77.6802H158.915V78.951H160.68V79.6394H158.915V83.1342C158.915 83.8226 159.279 84.1933 159.901 84.1933C160.213 84.1933 160.524 84.0874 160.731 83.8755L160.991 84.458Z" fill="white"/>
<path d="M79.795 24.5698C79.0687 23.299 78.3942 22.187 77.7197 21.075C76.4746 18.9569 75.2813 16.8918 74.0361 14.8267C73.9323 14.6149 73.621 14.456 73.4135 14.456C70.0412 14.456 66.6169 14.456 63.2446 14.456C63.0889 14.456 62.9852 14.509 62.7776 14.5619C62.8814 14.7737 62.9333 14.9326 62.9852 15.0914C65.7868 19.9101 68.6403 24.7816 71.442 29.6003C72.2202 30.9241 73.0503 32.3008 73.8286 33.6246C74.0361 33.9953 74.2955 34.1541 74.7106 34.1541C77.9792 34.1541 81.1959 34.1541 84.4644 34.1541C84.8276 34.1541 85.087 34.0482 85.1908 33.6776C86.1247 30.0239 87.6293 26.6879 89.6008 23.5108C92.1949 19.0628 95.4635 15.2503 99.0953 11.7555C102.935 7.99589 107.137 4.65992 111.599 1.69461C111.806 1.53576 112.066 1.42985 112.377 1.3769C111.755 2.22413 111.132 3.07136 110.561 3.97154C108.642 6.67209 106.878 9.42559 105.477 12.4438C105.321 12.7616 105.269 13.1852 105.269 13.5029C105.269 21.0221 105.269 28.5942 105.269 36.1134C105.269 38.3373 104.076 40.0847 102.053 40.8261C101.586 40.9849 101.067 41.0908 100.548 41.0908C90.5347 41.0908 80.4695 41.0908 70.4562 41.0908C66.8245 41.0908 63.1927 41.0908 59.5609 41.0908C58.7308 41.0908 57.9526 41.0379 57.1225 41.0379C54.5802 40.9849 52.6087 38.9728 52.6087 36.4311C52.6087 31.6654 52.6087 26.8997 52.6087 22.1341C52.6087 18.9569 52.6606 15.7798 52.6087 12.6557C52.5049 10.0081 54.5802 7.67818 57.4856 7.67818C60.7542 7.67818 63.9709 7.67818 67.2395 7.67818C67.8621 7.67818 68.2253 7.46637 68.5366 6.93685C69.3148 5.4542 70.1449 4.0245 70.975 2.54184C71.9089 0.953284 73.2579 0.106054 75.0737 0.106054C78.3942 0.106054 81.7147 0.0531018 84.9833 0.106054C86.7473 0.106054 88.0962 0.953284 88.9263 2.54184C89.7046 4.0245 90.4828 5.5601 91.261 7.04275C91.5204 7.46637 91.4686 7.73113 91.1054 8.10179C87.9406 11.0141 85.1908 14.2972 82.908 17.9508C81.7147 19.8571 80.7289 21.9222 80.0026 24.0933C79.9507 24.1462 79.8988 24.2521 79.795 24.5698Z" fill="white"/>
<path d="M17.7956 50.4634L16.1873 53.6405L8.87188 68.2552L1.60835 53.6405L0 50.4634H3.47611L5.08447 53.6405L8.87188 61.2656L12.6593 53.6405L14.2676 50.4634H17.7956Z" fill="#FFC844"/>
<path d="M19.3002 68.2552V50.4634H22.4131V68.2552H19.3002Z" fill="white"/>
<path d="M28.0165 55.229V56.8705H39.2231V60.0476H28.0165V63.3836C28.0165 64.2838 28.7429 65.0251 29.6249 65.0251H42.336V68.2022H29.6249C27.0307 68.2022 24.9554 66.0312 24.9554 63.3836V55.176C24.9554 52.5285 27.0307 50.3574 29.6249 50.3574H42.336V53.5345H29.6249C28.7429 53.6404 28.0165 54.3818 28.0165 55.229Z" fill="white"/>
<path d="M46.331 59.3593C46.331 62.5364 48.8213 65.0781 51.9342 65.0781H60.6505V68.2552H51.9342C47.1092 68.2552 43.218 64.2838 43.218 59.3593C43.218 54.4348 47.1092 50.4634 51.9342 50.4634H60.6505V53.6405H51.9342C48.8213 53.6405 46.331 56.1822 46.331 59.3593Z" fill="white"/>
<path d="M77.5121 65.0781V68.2552H68.6921C67.8101 68.2552 66.98 68.0434 66.2537 67.6728C65.1642 67.0903 64.2822 66.1901 63.7633 65.0781C63.4002 64.3368 63.1926 63.4896 63.1926 62.5894V50.4634H66.3056V62.9071C66.4612 64.0191 67.3432 64.9193 68.4327 65.0781H77.5121Z" fill="white"/>
<path d="M96.8124 68.2552H93.3362L91.7279 65.0781L87.9405 57.453L84.1531 65.0781L82.5447 68.2552H79.0686L80.677 65.0781L87.9924 50.4634L95.3078 65.0781L96.8124 68.2552Z" fill="#FFC844"/>
<path d="M115.749 50.4634V68.2552H112.637V56.9235L109.575 59.3064L107.033 61.3185L104.491 59.3064L101.43 56.9235V68.2552H98.317V50.4634L101.43 52.8992L107.033 57.2942L112.637 52.8992L115.749 50.4634Z" fill="white"/>
<path d="M124.206 56.3412V68.4671H121.093V56.0234C120.938 54.9114 120.056 54.0113 118.966 53.8524C118.862 53.8524 118.759 53.8524 118.655 53.8524H118.24V50.6753H118.603H118.914C119.641 50.7282 120.367 50.9401 121.041 51.2578C122.131 51.8402 123.013 52.7404 123.532 53.8524C123.687 54.2231 123.843 54.6467 123.947 55.0703C124.102 55.5469 124.154 55.9705 124.206 56.3412Z" fill="white"/>
<path d="M143.973 65.1309V68.308H131.677H126.593V63.0657C126.593 62.3244 126.749 61.636 127.008 61.0006C127.734 59.1473 129.498 57.8764 131.522 57.8235H139.045H139.097C140.134 57.7176 140.964 56.8174 140.964 55.7584C140.964 54.5934 140.082 53.6932 138.941 53.6932H126.645V50.5161H138.941C141.794 50.5161 144.077 52.846 144.077 55.7584C144.077 56.4997 143.922 57.1881 143.662 57.8235C143.403 58.406 143.04 58.9355 142.625 59.412C141.743 60.3652 140.497 60.9476 139.097 61.0006H139.045H138.993H131.625C130.588 61.1065 129.81 62.0067 129.81 63.0657V65.1309H143.973Z" fill="white"/>
<path d="M163.948 55.8116C163.948 57.2413 163.377 58.5121 162.495 59.4653C163.377 60.4184 163.948 61.6892 163.948 63.1189C163.948 66.0313 161.665 68.3612 158.812 68.3612H146.516V65.1841H158.812C159.953 65.1841 160.835 64.2309 160.835 63.1189C160.835 62.0069 160.005 61.1068 158.915 61.0538H158.864H149.68V57.8767H158.864H158.915C160.005 57.8237 160.835 56.9236 160.835 55.8116C160.835 54.6466 159.901 53.7465 158.812 53.7465H146.516V50.5693H158.812C161.665 50.5693 163.948 52.8992 163.948 55.8116Z" fill="white"/>
</g>
<defs>
<clipPath id="clip0">
<rect width="164" height="87" fill="white"/>
</clipPath>
</defs>
</svg>
