<svg width="17" height="17" viewBox="0 0 17 17" fill="none" xmlns="http://www.w3.org/2000/svg">
<path d="M5.22471 8.75133C5.87302 10.0767 6.94739 11.1462 8.27575 11.7885C8.37294 11.8346 8.48045 11.8545 8.58769 11.8464C8.69493 11.8383 8.79822 11.8024 8.88737 11.7422L10.8433 10.438C10.9298 10.3803 11.0293 10.3451 11.1328 10.3356C11.2364 10.3261 11.3407 10.3426 11.4362 10.3835L15.0954 11.9517C15.2197 12.0045 15.3234 12.0963 15.3911 12.2132C15.4587 12.3301 15.4865 12.4658 15.4702 12.5999C15.3546 13.5049 14.913 14.3367 14.2282 14.9396C13.5434 15.5425 12.6624 15.8751 11.75 15.8751C8.93207 15.8751 6.22956 14.7557 4.23699 12.7631C2.24442 10.7706 1.125 8.06806 1.125 5.25014C1.12505 4.33777 1.45765 3.45671 2.06053 2.77192C2.66341 2.08712 3.49523 1.64556 4.40023 1.5299C4.53431 1.51368 4.67002 1.54146 4.78693 1.60908C4.90384 1.67669 4.99561 1.78046 5.04841 1.90476L6.61798 5.5671C6.65858 5.66183 6.67512 5.76513 6.66614 5.8678C6.65715 5.97047 6.62291 6.06932 6.56647 6.15556L5.26676 8.14147C5.2076 8.23081 5.17263 8.33396 5.16526 8.44085C5.15789 8.54775 5.17837 8.65472 5.22471 8.75133V8.75133Z" stroke="white" stroke-width="1.5" stroke-linecap="round" stroke-linejoin="round"/>
</svg>
