<svg width="32" height="32" viewBox="0 0 32 32" fill="none" xmlns="http://www.w3.org/2000/svg">
<path d="M17 20.0001C17.7956 20.0001 18.5587 20.3162 19.1213 20.8788C19.6839 21.4414 20 22.2045 20 23.0001V24.0001C20 27.9421 16.28 32.0001 10 32.0001C3.72 32.0001 0 27.9421 0 24.0001V23.0001C0 22.2045 0.316071 21.4414 0.87868 20.8788C1.44129 20.3162 2.20435 20.0001 3 20.0001H17ZM17 22.0001H3C2.73478 22.0001 2.48043 22.1055 2.29289 22.293C2.10536 22.4805 2 22.7349 2 23.0001V24.0001C2 26.8761 4.864 30.0001 10 30.0001C15.136 30.0001 18 26.8761 18 24.0001V23.0001C18 22.7349 17.8946 22.4805 17.7071 22.293C17.5196 22.1055 17.2652 22.0001 17 22.0001ZM10 7.00012C11.4587 7.00012 12.8576 7.57958 13.8891 8.61103C14.9205 9.64248 15.5 11.0414 15.5 12.5001C15.5 13.9588 14.9205 15.3578 13.8891 16.3892C12.8576 17.4207 11.4587 18.0001 10 18.0001C8.54131 18.0001 7.14236 17.4207 6.11091 16.3892C5.07946 15.3578 4.5 13.9588 4.5 12.5001C4.5 11.0414 5.07946 9.64248 6.11091 8.61103C7.14236 7.57958 8.54131 7.00012 10 7.00012ZM28 0.00012207C29.0088 0.000307222 29.9803 0.381665 30.7198 1.0678C31.4594 1.75393 31.9123 2.69416 31.988 3.70012L32 4.00012V8.00012C32.0003 9.00927 31.6192 9.98125 30.933 10.7212C30.2468 11.4612 29.3063 11.9144 28.3 11.9901L28 12.0001H24.998L22.602 15.2001C21.542 16.6121 19.394 16.0401 19.048 14.4481L19.014 14.2261L19 14.0001V11.8701L18.844 11.8301C18.1251 11.6123 17.4819 11.1968 16.9879 10.631C16.4939 10.0651 16.1689 9.37181 16.05 8.63012L16.01 8.29812L16 8.00012V4.00012C15.9997 2.99097 16.3808 2.01899 17.067 1.27903C17.7532 0.539063 18.6937 0.0858087 19.7 0.0101223L20 0.00012207H28ZM10 9.00012C9.54037 9.00012 9.08525 9.09065 8.66061 9.26654C8.23597 9.44243 7.85013 9.70024 7.52513 10.0252C7.20012 10.3503 6.94231 10.7361 6.76642 11.1607C6.59053 11.5854 6.5 12.0405 6.5 12.5001C6.5 12.9597 6.59053 13.4149 6.76642 13.8395C6.94231 14.2642 7.20012 14.65 7.52513 14.975C7.85013 15.3 8.23597 15.5578 8.66061 15.7337C9.08525 15.9096 9.54037 16.0001 10 16.0001C10.9283 16.0001 11.8185 15.6314 12.4749 14.975C13.1313 14.3186 13.5 13.4284 13.5 12.5001C13.5 11.5719 13.1313 10.6816 12.4749 10.0252C11.8185 9.36887 10.9283 9.00012 10 9.00012ZM28 2.00012H20C19.5101 2.00019 19.0373 2.18003 18.6713 2.50555C18.3052 2.83107 18.0713 3.27962 18.014 3.76612L18 4.00012V8.00012C18.0001 8.48999 18.1799 8.9628 18.5054 9.32887C18.8309 9.69494 19.2795 9.92881 19.766 9.98612L20 10.0001H21V14.0001L24 10.0001H28C28.4899 10.0001 28.9627 9.82021 29.3287 9.49469C29.6948 9.16917 29.9287 8.72062 29.986 8.23412L30 8.00012V4.00012C29.9999 3.51026 29.8201 3.03745 29.4946 2.67138C29.169 2.30531 28.7205 2.07144 28.234 2.01412L28 2.00012Z" fill="white"/>
</svg>
